<svg xmlns="http://www.w3.org/2000/svg" viewBox="0 0 100 100">
  <defs>
    <linearGradient id="g" x1="0" x2="1" y1="0" y2="1">
      <stop offset="0%" stop-color="#16a34a"/>
      <stop offset="100%" stop-color="#15803d"/>
    </linearGradient>
  </defs>
  <rect width="100" height="100" rx="16" fill="url(#g)"/>
  <path d="M28 62c8 0 14-6 14-14s-6-14-14-14-14 6-14 14 6 14 14 14zm44 0c8 0 14-6 14-14s-6-14-14-14-14 6-14 14 6 14 14 14z" fill="#ffffff" opacity="0.85"/>
  <path d="M20 70h60a10 10 0 0 1-10 10H30A10 10 0 0 1 20 70z" fill="#ffffff" opacity="0.95"/>
</svg>
