<svg width="984" height="763" viewBox="0 0 984 763" fill="none" xmlns="http://www.w3.org/2000/svg">
<path d="M400.355 199C432.355 169.4 465.355 195 477.855 211.5V358L397.855 276.5C385.355 263 368.355 228.6 400.355 199Z" fill="#00A63E"/>
<path d="M554.664 198.114C522.949 168.443 490.244 194.105 477.855 210.645V357.5L557.141 275.802C569.53 262.27 586.378 227.786 554.664 198.114Z" fill="#00A63E"/>
<path d="M319 163V279L296 274.5V111C301.2 90.6 320.167 82.8333 329 81.5H350.5V52.5C382 17.5 398 53.5 398 52.5V114.5C388 132.1 375.5 121.833 370.5 114.5V63H360V81.5V114.5C381.2 147.7 400.5 128.333 407.5 114.5V81.5H481V163H319Z" fill="#00A63E"/>
<path d="M643 162.901V278.5L666 274.016V111.081C660.8 90.751 641.833 83.0112 633 81.6825H611.5V52.7827C580 17.9037 564 53.7792 564 52.7827V114.568C574 132.108 586.5 121.876 591.5 114.568V63.2464H602V81.6825V114.568C580.8 147.654 561.5 128.354 554.5 114.568V81.6825H481V162.901H643Z" fill="#00A63E"/>
<path d="M656.363 0C658.706 3.45112e-05 660.415 0.359473 661.616 0.986328C662.835 1.62211 663.52 2.52819 663.796 3.55762C664.067 4.56735 663.931 5.6453 663.617 6.62891C663.314 7.57845 662.832 8.47517 662.33 9.20215C661.101 14.4941 660.228 22.6725 661.567 30.1113C662.894 37.4763 666.358 43.9947 673.659 46.4102L674.01 46.5225L674.022 46.5254L674.034 46.5303C676.729 47.5101 681.234 48.4709 685.941 48.1514C690.645 47.832 695.499 46.24 698.983 42.1748L699.017 42.1367L699.056 42.1055C703.705 38.489 717.112 33.5653 734.087 42.0527C742.492 46.2551 748.001 49.2186 751.475 51.2168C753.211 52.2157 754.444 52.9761 755.276 53.5312C755.692 53.8084 756.013 54.0372 756.249 54.2217C756.3 54.2618 756.35 54.3021 756.396 54.3408C758.871 52.3426 763.108 46.9804 762.365 39.5498L762.357 39.4727L762.374 39.3975C762.697 37.8646 762.943 35.2176 762.616 32.3184C762.289 29.4181 761.392 26.3079 759.467 23.8047C758.815 22.9573 758.427 22.178 758.311 21.4688C758.191 20.7392 758.364 20.098 758.794 19.5908C759.21 19.1009 759.83 18.7781 760.537 18.5801C761.249 18.3808 762.089 18.2963 762.997 18.3125C766.603 18.377 771.61 20.0398 774.717 23.1465C780.695 29.1247 785.863 33.7642 785.863 43.5C785.863 45.8499 786.048 47.7642 786.205 49.6855C786.362 51.6053 786.489 53.5237 786.362 55.8398C786.108 60.4728 784.84 66.6506 780.833 77.6709L780.825 77.6904C779.705 80.4109 778.811 87.1267 784.203 92.1338C787.65 95.3344 790.054 96.1576 792.241 97.4443C793.34 98.0905 794.359 98.844 795.358 100.057C796.35 101.26 797.308 102.897 798.317 105.29L798.516 105.749C798.986 106.899 799.478 108.588 799.636 110.42C799.815 112.498 799.568 114.82 798.3 116.744C797.978 117.358 797.706 118.434 797.684 120.015C797.661 121.595 797.888 123.65 798.535 126.188C799.829 131.263 802.798 138.248 808.769 147.206C811.917 151.18 817.811 157.546 825.257 163.715C832.483 169.702 841.144 175.481 850.151 178.721L851.024 179.026L851.032 179.029C853.318 179.852 856.152 182.645 857.658 188.182C859.167 193.728 859.361 202.069 856.348 214.121C852.574 229.216 846.261 238.091 836.877 243.925C827.535 249.732 815.19 252.494 799.456 255.491C792.447 257.022 772.456 255.961 747.592 239.92L747.576 239.91L747.561 239.898C743.604 236.892 732.041 233.617 718.206 245.862C717.403 246.623 716.037 247.77 714.412 249.167C712.779 250.571 710.865 252.245 708.939 254.086C705.074 257.781 701.217 262.098 699.46 266.197L699.365 266.417L699.134 266.481L673.997 273.481L673.363 273.658V113.057C672.033 106.671 664.243 90.3204 643.584 76.415C632.989 69.2836 629.546 57.3746 629.5 45.502C629.454 33.6272 632.8 21.6852 635.902 14.3066L635.916 14.2725L635.936 14.2402C637.377 11.8663 640.112 8.32262 643.655 5.36621C647.193 2.41435 651.596 0 656.363 0ZM792.873 212C792.374 212 791.955 212.269 791.639 212.637C791.322 213.004 791.07 213.507 790.886 214.09C790.515 215.259 790.381 216.853 790.618 218.633C791.094 222.205 793.073 226.604 797.78 229.99C801.512 232.675 804.405 233.302 806.541 232.88C808.679 232.458 809.949 231.005 810.462 229.776L810.591 229.467L810.354 229.23L793.226 212.146L793.079 212H792.873ZM716.944 118.017C714.998 118.534 712.781 119.361 710.766 120.497C708.755 121.63 706.909 123.09 705.749 124.886C704.577 126.7 704.113 128.847 704.866 131.282C705.612 133.692 707.534 136.335 711.016 139.212C714.497 142.089 717.473 143.53 720.013 143.901C722.574 144.276 724.651 143.558 726.285 142.21C727.904 140.875 729.068 138.941 729.875 136.895C730.679 134.857 731.14 132.674 731.337 130.781C731.743 128.95 731.481 126.164 729.457 123.626C727.42 121.072 723.648 118.828 717.135 118.004L717.038 117.992L716.944 118.017Z" fill="#00A63E"/>
<path d="M286.21 292.768C323.545 281.126 357.946 299.217 370.591 309.79C400.592 317.555 418.158 328.582 429.413 340.717C440.674 352.859 445.578 366.074 450.323 378.061C452.761 384.222 451.972 392.108 449.319 400.466C446.661 408.84 442.108 417.77 436.907 426.073C431.705 434.377 425.844 442.073 420.559 447.977C417.917 450.929 415.413 453.439 413.204 455.356C411.005 457.263 409.061 458.615 407.541 459.21C401.76 461.472 397.058 462.625 392.083 462.37C387.112 462.115 381.917 460.458 375.141 457.196C369.596 454.526 366.152 449.7 364.097 444.801C362.044 439.904 361.358 434.888 361.358 431.746V431.651L361.392 431.563C371.244 406.343 369.559 373.138 367.428 359.246H362.339C362.082 366.432 361.539 377.398 360.719 387.56C360.3 392.756 359.808 397.748 359.246 401.918C358.685 406.074 358.049 409.461 357.328 411.418C356.431 413.853 354.758 416.237 353.215 418.786C351.655 421.363 350.177 424.177 349.538 427.587C348.265 434.377 350.286 443.729 362.246 458.429C371.722 470.077 384.759 473.704 396.713 472.909C408.694 472.111 419.5 466.876 424.474 460.924L424.703 460.651L425.036 460.778C430.153 462.722 434.929 466.862 439.286 472.238C443.647 477.619 447.62 484.276 451.119 491.31C458.117 505.378 463.253 521.013 465.842 531.122L465.936 531.487L465.611 531.676L330.611 610.676L330.421 610.789L330.21 610.722C312.017 605.062 300.846 590.581 294.272 574.863C287.699 559.146 285.691 542.126 285.858 531.238L285.863 530.965L286.093 530.821C301.511 521.21 311.33 514.866 317.306 508.94C320.284 505.987 322.29 503.153 323.555 500.088C324.671 497.387 325.22 494.482 325.335 491.124C287.034 535.34 245.524 528.738 231.072 518.655L230.745 518.427L230.895 518.057C232.227 514.779 233.972 512.737 236.097 511.5C238.21 510.269 240.644 509.866 243.288 509.758C245.902 509.652 248.864 509.835 251.917 509.828C254.762 509.82 257.775 509.649 260.924 508.95C247.355 493.608 245.516 479.721 247.373 472.126L247.43 471.889L247.654 471.789C255.422 468.303 260.045 464.877 262.449 461.665C264.829 458.484 265.038 455.509 263.968 452.804C262.882 450.058 260.451 447.534 257.438 445.371C254.461 443.233 250.963 441.482 247.766 440.246C243.219 440.255 236.46 440.956 230.842 443.015C225.154 445.1 220.858 448.484 220.858 453.746C220.858 459.151 223.669 463.272 227.241 466.249C230.596 469.043 234.588 470.797 237.43 471.611L237.983 471.761L238.324 471.849L238.356 472.2C238.776 476.822 238.751 484.221 237.311 491.43C235.875 498.62 233.008 505.736 227.653 509.649C224.972 511.608 222.296 512.399 219.728 512.358C217.168 512.316 214.751 511.449 212.577 510.15C208.238 507.559 204.785 503.208 202.925 499.996L202.881 499.918L202.866 499.832C201.945 494.56 200.843 485.661 200.521 476.075C200.2 466.496 200.657 456.186 202.877 448.113C207.216 432.334 215.781 422.642 219.819 419.527C215.146 388.891 217.779 365.08 219.781 356.516L216.552 354.902C211.61 363.357 209.992 375.176 210.021 386.631C210.05 398.251 211.77 409.414 213.345 416.131L213.399 416.362L213.255 416.549L195.255 440.049L195.121 440.225L194.9 440.244C193.456 440.364 192.387 439.586 191.637 438.4C190.899 437.232 190.425 435.611 190.128 433.854C189.546 430.423 189.607 426.285 189.842 423.433C186.452 419.972 183.766 415.026 181.784 410.262C179.767 405.415 178.458 400.709 177.869 397.846L177.863 397.82L177.861 397.793C174.337 361.548 197.505 337.39 208.483 324.915C212.981 319.804 218.851 317.472 224.332 316.626C229.535 315.823 234.419 316.354 237.52 317.139C237.878 316.219 238.734 315.083 240.147 313.775C241.855 312.195 244.443 310.303 248.159 308.162C255.593 303.879 267.589 298.574 286.21 292.768ZM242.585 383.738C240.603 382.912 238.325 382.702 235.743 383.511C233.173 384.317 230.324 386.123 227.164 389.283L227.112 389.334L227.078 389.397C226.034 391.311 225.102 394.523 225.673 397.993C226.249 401.488 228.343 405.197 233.265 408.069C236.366 409.878 239.281 410.219 241.849 409.575C244.406 408.933 246.571 407.328 248.215 405.33C249.859 403.331 251.004 400.915 251.513 398.604C252.02 396.306 251.912 394.035 250.949 392.384C249.201 389.388 246.504 385.371 242.585 383.738ZM309.585 383.738C307.603 382.912 305.325 382.702 302.743 383.511C300.173 384.317 297.324 386.123 294.164 389.283L294.112 389.334L294.078 389.397C293.034 391.311 292.102 394.523 292.673 397.993C293.249 401.488 295.343 405.197 300.265 408.069C303.366 409.878 306.281 410.219 308.849 409.575C311.406 408.933 313.571 407.328 315.215 405.33C316.859 403.331 318.004 400.915 318.513 398.604C319.02 396.306 318.912 394.035 317.949 392.384C316.201 389.388 313.504 385.371 309.585 383.738Z" fill="#00A63E"/>
<path fill-rule="evenodd" clip-rule="evenodd" d="M289.5 101.325V271L218 252.825L209.5 216.325C191.9 241.125 175.167 222.325 169 209.825C160.2 187.425 172.667 163.492 180 154.325C162 140.725 136.5 145.659 126 149.825C134.8 128.225 154.333 121.825 163 121.325C163 100.525 178.667 86.3252 186.5 81.8252C182.333 80.6585 173 74.9252 169 61.3252C165.339 48.8767 165.967 47.9567 169.314 43.0558C170.538 41.2638 172.126 38.9396 174 35.3252C179.6 24.5252 193 30.8252 199 35.3252L193.5 26.3252C192 18.9919 192.1 3.62521 204.5 0.825248C216.9 -1.97471 222.333 13.9919 223.5 22.3252C223.167 16.3252 225.6 3.62525 238 0.825248C250.4 -1.97475 257.167 13.9919 259 22.3252C266 18.3252 281.2 15.9252 286 38.3252C290.8 60.7252 275.333 76.6586 267 81.8252C277 81.8252 286.167 94.8252 289.5 101.325ZM208.085 125.424C208.75 122.817 211.373 117.8 216.555 118.582C223.031 119.559 225.024 124.446 223.529 128.356C222.034 132.265 217.157 134.243 212.569 133.243C208.085 132.265 207.78 126.401 208.085 125.424Z" fill="#00A63E"/>
<path d="M140.961 688.244H140.513C138.935 688.031 137.358 687.882 135.78 687.796C134.202 687.668 132.56 687.604 130.854 687.604C128.808 687.604 126.611 687.711 124.266 687.924C121.921 688.095 119.277 688.415 116.334 688.884H115.759C114.863 688.884 114.096 688.564 113.456 687.924C112.816 687.242 112.497 686.474 112.497 685.622C112.497 684.769 112.752 684.022 113.264 683.383C113.819 682.743 114.479 682.359 115.247 682.231C117.166 681.976 118.978 681.741 120.684 681.528C122.39 681.315 123.989 681.144 125.481 681.016C125.78 679.524 126.121 677.519 126.505 675.003C126.931 672.487 127.315 669.822 127.656 667.008C127.997 664.151 128.275 661.294 128.488 658.437C128.744 655.537 128.872 652.978 128.872 650.761C128.872 648.671 128.744 646.539 128.488 644.364C128.232 642.147 127.72 640.143 126.953 638.352C126.185 636.561 125.076 635.111 123.626 634.002C122.219 632.851 120.343 632.275 117.998 632.275C115.013 632.275 112.433 632.893 110.258 634.13C108.126 635.367 106.292 636.902 104.757 638.735C103.222 640.526 101.964 642.467 100.983 644.556C100.045 646.646 99.2985 648.543 98.7441 650.249C98.7441 653.66 98.6162 656.901 98.3604 659.972C98.2324 661.848 98.0618 663.788 97.8486 665.792C97.6354 667.754 97.4222 669.673 97.209 671.549C96.9958 673.383 96.7826 675.131 96.5693 676.794C96.3561 678.415 96.1642 679.822 95.9937 681.016C97.3156 681.016 98.6589 681.08 100.023 681.208C101.431 681.293 102.881 681.4 104.373 681.528C105.311 681.613 106.036 681.976 106.548 682.615C107.102 683.255 107.379 684.001 107.379 684.854C107.379 685.877 107.038 686.709 106.356 687.349C105.674 687.946 104.927 688.244 104.117 688.244H103.733C101.942 688.031 100.258 687.903 98.6802 687.86C97.1024 687.775 95.5459 687.732 94.0107 687.732C91.7933 687.732 89.5545 687.839 87.2944 688.052C85.077 688.223 82.6463 688.5 80.0024 688.884H79.4907C78.5526 688.884 77.7637 688.564 77.124 687.924C76.527 687.242 76.2285 686.474 76.2285 685.622C76.2285 684.769 76.4844 684.022 76.9961 683.383C77.5505 682.743 78.2541 682.359 79.1069 682.231C80.9406 681.976 82.6676 681.762 84.2881 681.592C85.9085 681.379 87.5503 681.229 89.2134 681.144C89.384 680.078 89.5758 678.735 89.7891 677.114C90.0023 675.451 90.2155 673.639 90.4287 671.677C90.6846 669.716 90.9191 667.69 91.1323 665.601C91.3882 663.511 91.5801 661.486 91.708 659.524C91.7933 658.074 91.8786 656.56 91.9639 654.982C92.0492 653.362 92.0918 651.699 92.0918 649.993C92.0918 647.946 91.9852 645.878 91.772 643.789C91.5588 641.699 91.0897 639.801 90.3647 638.096C89.6398 636.39 88.5951 635.004 87.2305 633.938C85.9085 632.829 84.1175 632.275 81.8574 632.275C79.7253 632.275 77.7637 632.765 75.9727 633.746C74.1816 634.684 72.5612 635.9 71.1113 637.392C69.6615 638.842 68.3822 640.462 67.2734 642.253C66.2074 644.002 65.2905 645.708 64.5229 647.371C63.7554 648.991 63.137 650.441 62.668 651.72C62.2415 652.957 61.9644 653.81 61.8364 654.279L61.7085 682.231C62.4761 682.317 63.2223 682.402 63.9473 682.487C64.6722 682.573 65.3971 682.658 66.1221 682.743C66.9749 682.871 67.6785 683.255 68.2329 683.895C68.8299 684.534 69.1284 685.28 69.1284 686.133C69.1284 687.071 68.766 687.86 68.041 688.5C67.3587 689.097 66.5911 689.396 65.7383 689.396H65.3545C62.7959 689.054 60.1733 688.777 57.4868 688.564C54.8429 688.351 52.0498 688.244 49.1074 688.244C46.4635 688.244 43.6704 688.351 40.728 688.564C37.8283 688.82 34.7153 689.289 31.3892 689.971C31.2612 689.971 31.1546 689.993 31.0693 690.035C30.984 690.078 30.8774 690.099 30.7495 690.099C29.7687 690.099 28.9798 689.737 28.3828 689.012C27.7858 688.287 27.4873 687.498 27.4873 686.645C27.4873 685.877 27.7218 685.174 28.1909 684.534C28.66 683.895 29.2996 683.511 30.1099 683.383C31.6877 683.042 33.2015 682.786 34.6514 682.615C36.1012 682.402 37.5511 682.231 39.001 682.104V634.258C36.3145 634.13 34.0544 633.981 32.2207 633.81C30.4297 633.597 29.4276 633.49 29.2144 633.49C28.3615 633.362 27.6579 632.979 27.1035 632.339C26.5918 631.699 26.3359 630.953 26.3359 630.1C26.3359 629.034 26.7197 628.224 27.4873 627.669C28.2549 627.072 29.0011 626.774 29.7261 626.774H30.1099C30.1525 626.774 30.6429 626.838 31.5811 626.966C32.5192 627.051 33.7345 627.179 35.2271 627.35C36.7622 627.478 38.4893 627.605 40.4082 627.733C42.3271 627.819 44.3101 627.861 46.3569 627.861C48.4038 627.861 50.408 627.797 52.3696 627.669C54.3312 627.499 56.1222 627.2 57.7427 626.774H58.3823C59.3631 626.774 60.1733 627.115 60.813 627.797C61.4953 628.48 61.8364 629.247 61.8364 630.1V638.479C62.8599 636.816 64.0326 635.217 65.3545 633.682C66.7191 632.147 68.2329 630.782 69.896 629.588C71.5591 628.394 73.3927 627.435 75.397 626.71C77.4012 625.985 79.5547 625.623 81.8574 625.623C83.9043 625.623 85.7593 625.921 87.4224 626.518C89.0854 627.115 90.5566 627.968 91.8359 629.077C93.1579 630.143 94.2879 631.422 95.2261 632.915C96.1642 634.407 96.9105 636.028 97.4648 637.776C98.403 636.326 99.5117 634.876 100.791 633.426C102.113 631.976 103.605 630.676 105.269 629.524C106.974 628.373 108.872 627.435 110.961 626.71C113.094 625.985 115.439 625.623 117.998 625.623C121.58 625.623 124.501 626.39 126.761 627.925C129.063 629.46 130.876 631.422 132.198 633.81C133.52 636.198 134.437 638.885 134.948 641.87C135.46 644.855 135.716 647.776 135.716 650.633C135.716 652.893 135.588 655.43 135.332 658.245C135.119 661.016 134.842 663.788 134.5 666.56C134.159 669.332 133.797 671.997 133.413 674.556C133.072 677.072 132.752 679.182 132.454 680.888C134.031 680.888 135.545 680.952 136.995 681.08C138.445 681.165 139.895 681.315 141.345 681.528C142.198 681.613 142.901 681.976 143.456 682.615C144.053 683.255 144.351 684.001 144.351 684.854C144.351 685.75 143.989 686.538 143.264 687.221C142.581 687.903 141.814 688.244 140.961 688.244ZM192.772 690.099C192.687 690.099 192.581 690.078 192.453 690.035C192.367 689.993 192.261 689.971 192.133 689.971C188.679 689.289 185.395 688.799 182.282 688.5C179.169 688.159 176.078 687.988 173.007 687.988C169.894 687.988 166.803 688.159 163.732 688.5C160.662 688.799 157.421 689.289 154.01 689.971C153.882 689.971 153.775 689.993 153.69 690.035C153.605 690.078 153.498 690.099 153.37 690.099C152.389 690.099 151.579 689.737 150.939 689.012C150.342 688.287 150.044 687.498 150.044 686.645C150.044 685.877 150.278 685.174 150.748 684.534C151.259 683.895 151.899 683.511 152.667 683.383C154.159 683.042 155.652 682.786 157.144 682.615C158.679 682.402 160.172 682.189 161.622 681.976V632.979C158.935 632.851 156.675 632.68 154.841 632.467C153.008 632.254 151.984 632.147 151.771 632.147C150.918 632.019 150.215 631.635 149.66 630.996C149.148 630.356 148.893 629.61 148.893 628.757C148.893 627.691 149.276 626.881 150.044 626.326C150.812 625.772 151.558 625.495 152.283 625.495H152.667C152.709 625.495 153.2 625.559 154.138 625.687C155.076 625.772 156.291 625.878 157.784 626.006C159.319 626.134 161.046 626.262 162.965 626.39C164.884 626.475 166.867 626.518 168.914 626.518C170.96 626.518 172.965 626.454 174.926 626.326C176.888 626.156 178.679 625.878 180.299 625.495H181.003C181.984 625.495 182.794 625.836 183.434 626.518C184.073 627.158 184.393 627.904 184.393 628.757L184.265 681.976C185.758 682.189 187.25 682.402 188.743 682.615C190.278 682.786 191.834 683.042 193.412 683.383C194.222 683.511 194.883 683.895 195.395 684.534C195.907 685.174 196.163 685.877 196.163 686.645C196.163 687.626 195.8 688.436 195.075 689.076C194.35 689.758 193.583 690.099 192.772 690.099ZM183.498 605.985C183.498 607.563 183.199 609.056 182.602 610.463C182.005 611.827 181.174 613.021 180.107 614.045C179.084 615.068 177.869 615.879 176.461 616.476C175.097 617.073 173.626 617.371 172.048 617.371C170.47 617.371 168.978 617.073 167.57 616.476C166.206 615.879 165.012 615.068 163.988 614.045C162.965 613.021 162.155 611.827 161.558 610.463C160.961 609.056 160.662 607.563 160.662 605.985C160.662 604.408 160.961 602.936 161.558 601.572C162.155 600.165 162.965 598.949 163.988 597.926C165.012 596.902 166.206 596.092 167.57 595.495C168.978 594.898 170.47 594.6 172.048 594.6C173.626 594.6 175.097 594.898 176.461 595.495C177.869 596.092 179.084 596.902 180.107 597.926C181.174 598.949 182.005 600.165 182.602 601.572C183.199 602.936 183.498 604.408 183.498 605.985ZM293.965 648.394C293.624 648.394 293.41 648.351 293.325 648.266C291.108 647.882 288.997 647.626 286.993 647.499C285.031 647.328 283.091 647.2 281.172 647.115C282.75 648.948 284.072 651.187 285.138 653.831C286.246 656.432 286.801 659.524 286.801 663.106C286.801 666.517 286.268 669.609 285.202 672.381C284.178 675.11 282.771 677.562 280.98 679.737C279.189 681.869 277.078 683.724 274.647 685.302C272.259 686.837 269.701 688.116 266.972 689.14C264.285 690.163 261.492 690.909 258.592 691.378C255.693 691.89 252.857 692.146 250.085 692.146C242.836 691.933 236.354 690.717 230.64 688.5C224.925 686.24 220.064 683.084 216.056 679.033C212.047 674.982 208.977 670.078 206.845 664.321C204.755 658.564 203.71 652.04 203.71 644.748C203.71 638.266 204.393 632.509 205.757 627.478C207.122 622.403 208.977 617.968 211.322 614.173C213.71 610.335 216.503 607.115 219.702 604.514C222.9 601.87 226.29 599.738 229.872 598.118C233.497 596.455 237.249 595.261 241.13 594.536C245.01 593.768 248.827 593.384 252.58 593.384C256.332 593.384 259.701 593.789 262.686 594.6C265.671 595.367 268.336 596.348 270.682 597.542C273.027 598.736 275.031 600.079 276.694 601.572C278.4 603.022 279.807 604.408 280.916 605.729L284.434 595.623C284.69 594.941 285.116 594.408 285.713 594.024C286.31 593.597 286.929 593.384 287.568 593.384C288.634 593.384 289.466 593.768 290.063 594.536C290.66 595.261 290.958 596.007 290.958 596.774C290.958 596.902 290.937 597.073 290.895 597.286C290.852 597.457 290.788 597.649 290.703 597.862L280.532 627.605C280.319 628.245 279.914 628.778 279.317 629.205C278.72 629.588 278.059 629.78 277.334 629.78C276.353 629.78 275.543 629.439 274.903 628.757C274.264 628.032 273.944 627.243 273.944 626.39C273.944 626.262 273.965 626.113 274.008 625.942C274.05 625.772 274.114 625.58 274.2 625.367L278.293 613.405C277.227 611.742 275.927 610.143 274.392 608.608C272.899 607.03 271.236 605.644 269.402 604.45C267.611 603.256 265.714 602.297 263.709 601.572C261.705 600.847 259.701 600.484 257.697 600.484C252.58 600.484 248.059 601.593 244.136 603.811C240.213 605.985 236.908 608.992 234.222 612.83C231.578 616.625 229.574 621.06 228.209 626.134C226.844 631.209 226.162 636.625 226.162 642.381C226.162 644.94 226.311 647.776 226.61 650.889C226.951 654.002 227.484 657.157 228.209 660.355C228.977 663.554 229.957 666.645 231.151 669.63C232.388 672.615 233.902 675.281 235.693 677.626C237.484 679.971 239.573 681.848 241.961 683.255C244.349 684.662 247.1 685.366 250.213 685.366C255.415 685.366 259.893 684.726 263.646 683.447C267.398 682.167 270.468 680.483 272.856 678.394C275.287 676.304 277.078 673.916 278.229 671.229C279.381 668.543 279.957 665.792 279.957 662.978C279.957 660.505 279.615 658.373 278.933 656.582C278.251 654.748 277.441 653.234 276.502 652.04C275.564 650.803 274.605 649.844 273.624 649.162C272.643 648.479 271.876 648.01 271.321 647.754C269.061 648.053 267.036 648.437 265.245 648.906C263.496 649.375 262.004 649.823 260.767 650.249C259.573 650.675 258.635 651.059 257.953 651.4C257.313 651.699 256.972 651.848 256.929 651.848C256.46 652.189 255.927 652.36 255.33 652.36C254.349 652.36 253.539 652.019 252.899 651.336C252.26 650.611 251.94 649.823 251.94 648.97C251.94 647.733 252.516 646.752 253.667 646.027C253.795 645.985 254.477 645.665 255.714 645.068C256.951 644.471 258.678 643.831 260.895 643.149C263.155 642.424 265.884 641.784 269.083 641.23C272.323 640.676 275.991 640.398 280.084 640.398C284.477 640.398 289.295 640.846 294.541 641.742C295.308 641.87 295.948 642.253 296.459 642.893C297.014 643.49 297.291 644.194 297.291 645.004C297.291 646.113 296.907 646.965 296.14 647.562C295.372 648.117 294.647 648.394 293.965 648.394ZM363.175 656.773C361.597 656.773 360.104 656.475 358.697 655.878C357.333 655.281 356.139 654.471 355.115 653.447C354.092 652.424 353.282 651.23 352.685 649.865C352.088 648.458 351.789 646.965 351.789 645.388C351.789 643.81 352.088 642.339 352.685 640.974C353.282 639.567 354.092 638.352 355.115 637.328C356.139 636.262 357.333 635.431 358.697 634.833C360.104 634.194 361.597 633.874 363.175 633.874C363.388 633.874 363.58 633.895 363.75 633.938C363.964 633.981 364.177 634.002 364.39 634.002C363.281 633.149 361.981 632.509 360.488 632.083C359.038 631.614 357.354 631.379 355.435 631.379C353.004 631.379 350.894 631.891 349.103 632.915C347.312 633.895 345.776 635.153 344.497 636.688C343.26 638.181 342.258 639.823 341.491 641.614C340.723 643.362 340.105 645.025 339.636 646.603C339.209 648.138 338.911 649.46 338.74 650.569C338.612 651.678 338.548 652.317 338.548 652.488L338.42 680.888C339.913 681.016 341.405 681.208 342.898 681.464C344.433 681.72 345.99 681.976 347.567 682.231C348.378 682.445 349.039 682.871 349.55 683.511C350.062 684.108 350.318 684.811 350.318 685.622C350.318 686.56 349.955 687.349 349.23 687.988C348.506 688.585 347.738 688.884 346.928 688.884H346.288C342.834 688.244 339.55 687.754 336.438 687.413C333.325 687.071 330.233 686.901 327.163 686.901C324.092 686.901 321.022 687.071 317.952 687.413C314.881 687.754 311.619 688.244 308.165 688.884H307.525C306.545 688.884 305.756 688.564 305.159 687.924C304.562 687.242 304.263 686.474 304.263 685.622C304.263 684.811 304.498 684.108 304.967 683.511C305.436 682.871 306.076 682.445 306.886 682.231C308.378 681.976 309.871 681.72 311.363 681.464C312.856 681.208 314.327 681.016 315.777 680.888V633.234C313.09 633.106 310.83 632.936 308.997 632.723C307.163 632.509 306.139 632.36 305.926 632.275C305.073 632.19 304.37 631.848 303.815 631.251C303.304 630.612 303.048 629.866 303.048 629.013C303.048 627.947 303.41 627.115 304.135 626.518C304.903 625.921 305.67 625.623 306.438 625.623H306.886C306.928 625.665 307.419 625.75 308.357 625.878C309.295 625.964 310.51 626.07 312.003 626.198C313.495 626.326 315.201 626.433 317.12 626.518C319.082 626.603 321.065 626.646 323.069 626.646C325.116 626.646 327.12 626.582 329.082 626.454C331.043 626.326 332.855 626.092 334.519 625.75C334.604 625.665 334.817 625.623 335.158 625.623C336.139 625.623 336.949 625.985 337.589 626.71C338.229 627.392 338.548 628.16 338.548 629.013V633.618C340.382 631.06 342.685 628.949 345.457 627.286C348.271 625.58 351.597 624.727 355.435 624.727C358.335 624.812 360.979 625.324 363.367 626.262C365.755 627.158 367.802 628.416 369.507 630.036C371.256 631.614 372.599 633.533 373.537 635.793C374.518 638.01 375.008 640.505 375.008 643.277C375.008 645.025 374.731 646.71 374.177 648.33C373.622 649.951 372.833 651.4 371.81 652.68C370.787 653.916 369.529 654.918 368.036 655.686C366.586 656.411 364.966 656.773 363.175 656.773ZM426.18 666.112C426.095 665.387 426.031 664.641 425.988 663.874C425.946 663.106 425.924 662.317 425.924 661.507H423.558C421.852 661.507 419.826 661.635 417.481 661.891C415.178 662.146 412.79 662.552 410.317 663.106C407.844 663.66 405.392 664.407 402.961 665.345C400.53 666.24 398.355 667.349 396.437 668.671C394.518 669.95 392.961 671.464 391.767 673.212C390.616 674.961 390.04 676.965 390.04 679.225C390.04 680.419 390.317 681.443 390.872 682.295C391.469 683.148 392.194 683.852 393.046 684.406C393.942 684.918 394.923 685.302 395.989 685.558C397.055 685.771 398.078 685.877 399.059 685.877C402.087 685.877 404.944 685.302 407.63 684.15C410.36 682.956 412.875 681.421 415.178 679.545C417.481 677.626 419.549 675.494 421.383 673.148C423.216 670.803 424.816 668.458 426.18 666.112ZM456.819 688.244H456.563C455.839 688.159 455.092 688.116 454.325 688.116C453.557 688.116 452.811 688.116 452.086 688.116C448.077 688.116 444.218 688.372 440.508 688.884C436.841 689.396 433.152 690.184 429.442 691.25C429.314 691.25 429.187 691.272 429.059 691.314C428.931 691.357 428.76 691.378 428.547 691.378C427.566 691.378 426.756 690.995 426.116 690.227C425.519 689.502 425.221 688.756 425.221 687.988V687.477C425.221 687.391 425.327 686.538 425.541 684.918C425.754 683.255 425.967 680.952 426.18 678.01C424.347 680.057 422.385 681.976 420.295 683.767C418.249 685.515 416.074 687.05 413.771 688.372C411.511 689.651 409.166 690.653 406.735 691.378C404.304 692.146 401.788 692.53 399.187 692.53C397.14 692.53 395.157 692.21 393.238 691.57C391.319 690.973 389.614 690.099 388.121 688.948C386.671 687.796 385.499 686.41 384.603 684.79C383.75 683.127 383.324 681.272 383.324 679.225C383.324 676.027 384.006 673.212 385.371 670.782C386.778 668.351 388.611 666.24 390.872 664.449C393.132 662.616 395.69 661.102 398.547 659.908C401.447 658.671 404.389 657.69 407.375 656.965C410.36 656.198 413.259 655.665 416.074 655.366C418.888 655.025 421.383 654.854 423.558 654.854H425.093C425.093 652.253 424.624 649.716 423.686 647.243C422.79 644.769 421.511 642.573 419.848 640.654C418.227 638.735 416.287 637.2 414.027 636.049C411.767 634.855 409.272 634.258 406.543 634.258C404.539 634.258 402.577 634.833 400.658 635.985C398.739 637.094 397.034 638.522 395.541 640.271C394.049 642.019 392.833 643.98 391.895 646.155C391 648.33 390.552 650.441 390.552 652.488C390.552 653.341 390.189 654.066 389.464 654.663C388.782 655.217 388.014 655.494 387.162 655.494C386.223 655.494 385.413 655.153 384.731 654.471C384.049 653.746 383.708 652.957 383.708 652.104C383.708 650.057 384.07 647.925 384.795 645.708C385.52 643.447 386.565 641.251 387.929 639.119C389.336 636.944 391.021 634.897 392.982 632.979C394.987 631.06 397.247 629.375 399.763 627.925C402.321 626.433 405.114 625.26 408.142 624.407C411.17 623.554 414.389 623.128 417.801 623.128C422.577 623.128 426.649 623.874 430.018 625.367C433.43 626.859 436.265 628.885 438.525 631.443C440.828 634.002 442.64 636.966 443.962 640.334C445.284 643.703 446.286 647.264 446.969 651.017C447.651 654.769 448.077 658.586 448.248 662.466C448.461 666.347 448.568 670.057 448.568 673.596C448.568 675.387 448.547 676.922 448.504 678.202C448.461 679.481 448.44 680.547 448.44 681.4C449.08 681.4 449.719 681.379 450.359 681.336C451.041 681.293 451.702 681.272 452.342 681.272C453.067 681.272 453.813 681.293 454.581 681.336C455.391 681.379 456.18 681.4 456.947 681.4C457.885 681.485 458.632 681.848 459.186 682.487C459.783 683.127 460.082 683.916 460.082 684.854C460.082 685.75 459.762 686.538 459.122 687.221C458.525 687.903 457.757 688.244 456.819 688.244ZM544.003 685.622C543.918 686.474 543.534 687.199 542.852 687.796C542.17 688.351 541.402 688.628 540.549 688.628H540.293C538.247 688.415 536.264 688.265 534.345 688.18C532.468 688.052 530.613 687.988 528.78 687.988C526.093 687.988 523.513 688.116 521.04 688.372C518.609 688.585 516.221 688.884 513.876 689.268C513.791 689.268 513.684 689.289 513.556 689.332C513.471 689.374 513.386 689.396 513.3 689.396C512.405 689.396 511.616 689.054 510.934 688.372C510.251 687.647 509.91 686.858 509.91 686.005C509.91 685.238 510.166 684.534 510.678 683.895C511.232 683.255 511.893 682.871 512.661 682.743C514.452 682.402 516.243 682.146 518.034 681.976C519.867 681.762 521.744 681.57 523.663 681.4C524.046 680.078 524.451 678.287 524.878 676.027C525.304 673.767 525.688 671.336 526.029 668.735C526.413 666.134 526.712 663.511 526.925 660.867C527.181 658.223 527.309 655.857 527.309 653.767C527.309 651.592 527.181 649.226 526.925 646.667C526.712 644.108 526.179 641.72 525.326 639.503C524.515 637.243 523.321 635.367 521.744 633.874C520.208 632.382 518.14 631.635 515.539 631.635C512.597 631.635 509.868 632.36 507.352 633.81C504.836 635.26 502.661 637.115 500.827 639.375C499.036 641.592 497.608 644.044 496.542 646.731C495.518 649.417 495.006 651.997 495.006 654.471V654.599L494.878 682.743C495.646 682.828 496.392 682.914 497.117 682.999C497.842 683.042 498.567 683.127 499.292 683.255C500.145 683.34 500.848 683.703 501.403 684.342C502 684.939 502.298 685.664 502.298 686.517C502.298 687.455 501.936 688.265 501.211 688.948C500.529 689.63 499.761 689.971 498.908 689.971C498.738 689.971 498.61 689.907 498.524 689.779C495.966 689.523 493.343 689.268 490.657 689.012C488.013 688.756 485.22 688.628 482.277 688.628C479.633 688.628 476.84 688.756 473.898 689.012C470.998 689.31 467.885 689.758 464.559 690.355C464.389 690.44 464.175 690.483 463.919 690.483C462.939 690.483 462.15 690.12 461.553 689.396C460.956 688.671 460.657 687.882 460.657 687.029C460.657 686.261 460.892 685.558 461.361 684.918C461.83 684.278 462.47 683.895 463.28 683.767C464.858 683.425 466.371 683.17 467.821 682.999C469.271 682.786 470.721 682.615 472.171 682.487V633.618C469.484 633.49 467.224 633.341 465.391 633.17C463.6 632.957 462.597 632.808 462.384 632.723C461.531 632.637 460.828 632.275 460.273 631.635C459.762 630.996 459.506 630.249 459.506 629.396C459.506 628.373 459.868 627.563 460.593 626.966C461.318 626.326 462.086 626.006 462.896 626.006C463.067 626.006 463.194 626.049 463.28 626.134C463.322 626.134 463.813 626.177 464.751 626.262C465.689 626.347 466.904 626.454 468.397 626.582C469.932 626.71 471.659 626.817 473.578 626.902C475.497 626.987 477.48 627.03 479.527 627.03C481.574 627.03 483.578 626.987 485.54 626.902C487.501 626.774 489.292 626.518 490.913 626.134C490.998 626.134 491.083 626.113 491.168 626.07C491.296 626.028 491.424 626.006 491.552 626.006C492.533 626.006 493.343 626.369 493.983 627.094C494.665 627.776 495.006 628.544 495.006 629.396V635.985C497.48 632.36 500.422 629.631 503.833 627.797C507.288 625.921 511.189 624.983 515.539 624.983C518.098 624.983 520.315 625.431 522.191 626.326C524.11 627.179 525.752 628.352 527.117 629.844C528.524 631.337 529.654 633.064 530.507 635.025C531.402 636.944 532.106 638.97 532.618 641.102C533.172 643.234 533.535 645.409 533.705 647.626C533.918 649.801 534.025 651.848 534.025 653.767C534.025 655.899 533.918 658.245 533.705 660.803C533.492 663.319 533.215 665.835 532.874 668.351C532.575 670.867 532.213 673.255 531.786 675.515C531.402 677.775 531.019 679.694 530.635 681.272C532.255 681.357 533.918 681.443 535.624 681.528C537.372 681.613 539.142 681.762 540.933 681.976C541.914 682.061 542.66 682.487 543.172 683.255C543.726 683.98 544.003 684.769 544.003 685.622ZM580.399 627.35C580.399 627.392 580.421 628.053 580.463 629.333C580.506 630.569 580.549 632.296 580.591 634.514C580.677 636.688 580.741 639.29 580.783 642.317C580.868 645.345 580.911 648.65 580.911 652.232C580.911 656.88 580.847 661.848 580.719 667.136C580.591 672.424 580.357 677.797 580.016 683.255C579.674 688.287 578.864 693.063 577.585 697.583C576.306 702.103 574.451 706.069 572.02 709.48C569.632 712.892 566.626 715.6 563.001 717.604C559.419 719.608 555.133 720.61 550.144 720.61C546.903 720.61 543.854 720.077 540.997 719.011C538.14 717.988 535.667 716.517 533.577 714.598C531.445 712.679 529.782 710.376 528.588 707.689C527.351 705.046 526.733 702.103 526.733 698.862C526.733 697.924 527.053 697.114 527.692 696.432C528.332 695.792 529.142 695.472 530.123 695.472C531.019 695.472 531.786 695.792 532.426 696.432C533.065 697.114 533.385 697.924 533.385 698.862C533.428 700.099 533.705 701.506 534.217 703.084C534.729 704.704 535.475 706.218 536.456 707.625C537.394 709.075 538.545 710.291 539.91 711.271C541.274 712.252 542.809 712.743 544.515 712.743C546.775 712.743 548.673 712.167 550.208 711.016C551.743 709.864 553.001 708.372 553.982 706.538C554.963 704.704 555.688 702.636 556.157 700.333C556.668 698.031 557.031 695.728 557.244 693.425C557.457 691.123 557.564 688.948 557.564 686.901C557.607 684.811 557.628 683.084 557.628 681.72V631.635C554.941 631.507 552.681 631.358 550.848 631.188C549.014 630.974 548.033 630.868 547.905 630.868C547.052 630.74 546.327 630.356 545.73 629.716C545.176 629.077 544.899 628.33 544.899 627.478C544.899 626.539 545.24 625.75 545.922 625.111C546.647 624.471 547.436 624.151 548.289 624.151H548.737C548.779 624.151 549.27 624.215 550.208 624.343C551.146 624.429 552.361 624.556 553.854 624.727C555.389 624.855 557.116 624.983 559.035 625.111C560.954 625.196 562.937 625.239 564.984 625.239C567.031 625.239 569.035 625.175 570.997 625.047C572.958 624.876 574.749 624.578 576.37 624.151H577.137C578.075 624.151 578.843 624.493 579.44 625.175C580.08 625.814 580.399 626.539 580.399 627.35ZM579.632 604.642C579.632 606.22 579.333 607.712 578.736 609.12C578.139 610.484 577.329 611.678 576.306 612.702C575.282 613.725 574.067 614.535 572.66 615.132C571.295 615.729 569.824 616.028 568.246 616.028C566.626 616.028 565.112 615.729 563.705 615.132C562.297 614.535 561.082 613.725 560.059 612.702C559.035 611.678 558.225 610.484 557.628 609.12C557.031 607.712 556.732 606.22 556.732 604.642C556.732 603.064 557.031 601.593 557.628 600.229C558.225 598.821 559.035 597.606 560.059 596.583C561.082 595.559 562.297 594.749 563.705 594.152C565.112 593.555 566.626 593.256 568.246 593.256C569.824 593.256 571.295 593.555 572.66 594.152C574.067 594.749 575.282 595.559 576.306 596.583C577.329 597.606 578.139 598.821 578.736 600.229C579.333 601.593 579.632 603.064 579.632 604.642ZM638.543 666.112C638.458 665.387 638.394 664.641 638.352 663.874C638.309 663.106 638.288 662.317 638.288 661.507H635.921C634.215 661.507 632.19 661.635 629.844 661.891C627.542 662.146 625.153 662.552 622.68 663.106C620.207 663.66 617.755 664.407 615.324 665.345C612.894 666.24 610.719 667.349 608.8 668.671C606.881 669.95 605.324 671.464 604.13 673.212C602.979 674.961 602.403 676.965 602.403 679.225C602.403 680.419 602.681 681.443 603.235 682.295C603.832 683.148 604.557 683.852 605.41 684.406C606.305 684.918 607.286 685.302 608.352 685.558C609.418 685.771 610.442 685.877 611.422 685.877C614.45 685.877 617.307 685.302 619.994 684.15C622.723 682.956 625.239 681.421 627.542 679.545C629.844 677.626 631.912 675.494 633.746 673.148C635.58 670.803 637.179 668.458 638.543 666.112ZM669.183 688.244H668.927C668.202 688.159 667.456 688.116 666.688 688.116C665.92 688.116 665.174 688.116 664.449 688.116C660.441 688.116 656.582 688.372 652.872 688.884C649.204 689.396 645.516 690.184 641.806 691.25C641.678 691.25 641.55 691.272 641.422 691.314C641.294 691.357 641.123 691.378 640.91 691.378C639.929 691.378 639.119 690.995 638.479 690.227C637.882 689.502 637.584 688.756 637.584 687.988V687.477C637.584 687.391 637.691 686.538 637.904 684.918C638.117 683.255 638.33 680.952 638.543 678.01C636.71 680.057 634.748 681.976 632.659 683.767C630.612 685.515 628.437 687.05 626.134 688.372C623.874 689.651 621.529 690.653 619.098 691.378C616.667 692.146 614.152 692.53 611.55 692.53C609.503 692.53 607.521 692.21 605.602 691.57C603.683 690.973 601.977 690.099 600.484 688.948C599.035 687.796 597.862 686.41 596.966 684.79C596.113 683.127 595.687 681.272 595.687 679.225C595.687 676.027 596.369 673.212 597.734 670.782C599.141 668.351 600.975 666.24 603.235 664.449C605.495 662.616 608.054 661.102 610.911 659.908C613.81 658.671 616.753 657.69 619.738 656.965C622.723 656.198 625.623 655.665 628.437 655.366C631.251 655.025 633.746 654.854 635.921 654.854H637.456C637.456 652.253 636.987 649.716 636.049 647.243C635.153 644.769 633.874 642.573 632.211 640.654C630.59 638.735 628.65 637.2 626.39 636.049C624.13 634.855 621.635 634.258 618.906 634.258C616.902 634.258 614.94 634.833 613.021 635.985C611.103 637.094 609.397 638.522 607.904 640.271C606.412 642.019 605.196 643.98 604.258 646.155C603.363 648.33 602.915 650.441 602.915 652.488C602.915 653.341 602.553 654.066 601.828 654.663C601.145 655.217 600.378 655.494 599.525 655.494C598.587 655.494 597.777 655.153 597.094 654.471C596.412 653.746 596.071 652.957 596.071 652.104C596.071 650.057 596.433 647.925 597.158 645.708C597.883 643.447 598.928 641.251 600.292 639.119C601.7 636.944 603.384 634.897 605.346 632.979C607.35 631.06 609.61 629.375 612.126 627.925C614.685 626.433 617.478 625.26 620.505 624.407C623.533 623.554 626.753 623.128 630.164 623.128C634.94 623.128 639.013 623.874 642.381 625.367C645.793 626.859 648.629 628.885 650.889 631.443C653.191 634.002 655.004 636.966 656.326 640.334C657.648 643.703 658.65 647.264 659.332 651.017C660.014 654.769 660.441 658.586 660.611 662.466C660.825 666.347 660.931 670.057 660.931 673.596C660.931 675.387 660.91 676.922 660.867 678.202C660.825 679.481 660.803 680.547 660.803 681.4C661.443 681.4 662.083 681.379 662.722 681.336C663.404 681.293 664.065 681.272 664.705 681.272C665.43 681.272 666.176 681.293 666.944 681.336C667.754 681.379 668.543 681.4 669.311 681.4C670.249 681.485 670.995 681.848 671.549 682.487C672.146 683.127 672.445 683.916 672.445 684.854C672.445 685.75 672.125 686.538 671.485 687.221C670.888 687.903 670.121 688.244 669.183 688.244ZM695.92 681.528C695.92 682.892 695.664 684.172 695.152 685.366C694.641 686.56 693.937 687.604 693.042 688.5C692.189 689.396 691.165 690.099 689.971 690.611C688.777 691.123 687.498 691.378 686.133 691.378C684.769 691.378 683.489 691.123 682.295 690.611C681.101 690.099 680.057 689.396 679.161 688.5C678.266 687.604 677.562 686.56 677.05 685.366C676.539 684.172 676.283 682.892 676.283 681.528C676.283 680.206 676.539 678.948 677.05 677.754C677.562 676.56 678.266 675.536 679.161 674.684C680.057 673.831 681.101 673.148 682.295 672.637C683.489 672.125 684.769 671.869 686.133 671.869C687.498 671.869 688.777 672.125 689.971 672.637C691.165 673.148 692.189 673.831 693.042 674.684C693.937 675.536 694.641 676.56 695.152 677.754C695.664 678.948 695.92 680.206 695.92 681.528ZM750.738 666.112C750.653 665.387 750.589 664.641 750.546 663.874C750.503 663.106 750.482 662.317 750.482 661.507H748.115C746.41 661.507 744.384 661.635 742.039 661.891C739.736 662.146 737.348 662.552 734.875 663.106C732.401 663.66 729.949 664.407 727.519 665.345C725.088 666.24 722.913 667.349 720.994 668.671C719.075 669.95 717.519 671.464 716.325 673.212C715.173 674.961 714.598 676.965 714.598 679.225C714.598 680.419 714.875 681.443 715.429 682.295C716.026 683.148 716.751 683.852 717.604 684.406C718.5 684.918 719.48 685.302 720.546 685.558C721.612 685.771 722.636 685.877 723.617 685.877C726.644 685.877 729.501 685.302 732.188 684.15C734.917 682.956 737.433 681.421 739.736 679.545C742.039 677.626 744.107 675.494 745.94 673.148C747.774 670.803 749.373 668.458 750.738 666.112ZM781.377 688.244H781.121C780.396 688.159 779.65 688.116 778.882 688.116C778.115 688.116 777.368 688.116 776.644 688.116C772.635 688.116 768.776 688.372 765.066 688.884C761.399 689.396 757.71 690.184 754 691.25C753.872 691.25 753.744 691.272 753.616 691.314C753.488 691.357 753.318 691.378 753.104 691.378C752.124 691.378 751.313 690.995 750.674 690.227C750.077 689.502 749.778 688.756 749.778 687.988V687.477C749.778 687.391 749.885 686.538 750.098 684.918C750.311 683.255 750.525 680.952 750.738 678.01C748.904 680.057 746.943 681.976 744.853 683.767C742.806 685.515 740.631 687.05 738.329 688.372C736.069 689.651 733.723 690.653 731.292 691.378C728.862 692.146 726.346 692.53 723.745 692.53C721.698 692.53 719.715 692.21 717.796 691.57C715.877 690.973 714.171 690.099 712.679 688.948C711.229 687.796 710.056 686.41 709.161 684.79C708.308 683.127 707.881 681.272 707.881 679.225C707.881 676.027 708.564 673.212 709.928 670.782C711.335 668.351 713.169 666.24 715.429 664.449C717.689 662.616 720.248 661.102 723.105 659.908C726.005 658.671 728.947 657.69 731.932 656.965C734.917 656.198 737.817 655.665 740.631 655.366C743.446 655.025 745.94 654.854 748.115 654.854H749.65C749.65 652.253 749.181 649.716 748.243 647.243C747.348 644.769 746.068 642.573 744.405 640.654C742.785 638.735 740.845 637.2 738.584 636.049C736.324 634.855 733.83 634.258 731.101 634.258C729.096 634.258 727.135 634.833 725.216 635.985C723.297 637.094 721.591 638.522 720.099 640.271C718.606 642.019 717.391 643.98 716.453 646.155C715.557 648.33 715.109 650.441 715.109 652.488C715.109 653.341 714.747 654.066 714.022 654.663C713.34 655.217 712.572 655.494 711.719 655.494C710.781 655.494 709.971 655.153 709.289 654.471C708.606 653.746 708.265 652.957 708.265 652.104C708.265 650.057 708.628 647.925 709.353 645.708C710.077 643.447 711.122 641.251 712.487 639.119C713.894 636.944 715.578 634.897 717.54 632.979C719.544 631.06 721.804 629.375 724.32 627.925C726.879 626.433 729.672 625.26 732.7 624.407C735.727 623.554 738.947 623.128 742.358 623.128C747.134 623.128 751.207 623.874 754.576 625.367C757.987 626.859 760.823 628.885 763.083 631.443C765.386 634.002 767.198 636.966 768.52 640.334C769.842 643.703 770.844 647.264 771.526 651.017C772.209 654.769 772.635 658.586 772.806 662.466C773.019 666.347 773.125 670.057 773.125 673.596C773.125 675.387 773.104 676.922 773.062 678.202C773.019 679.481 772.998 680.547 772.998 681.4C773.637 681.4 774.277 681.379 774.917 681.336C775.599 681.293 776.26 681.272 776.899 681.272C777.624 681.272 778.371 681.293 779.138 681.336C779.948 681.379 780.737 681.4 781.505 681.4C782.443 681.485 783.189 681.848 783.744 682.487C784.341 683.127 784.639 683.916 784.639 684.854C784.639 685.75 784.319 686.538 783.68 687.221C783.083 687.903 782.315 688.244 781.377 688.244ZM858.838 654.151C858.796 651.208 858.348 648.309 857.495 645.452C856.642 642.552 855.384 639.972 853.721 637.712C852.101 635.452 850.097 633.618 847.708 632.211C845.363 630.804 842.655 630.1 839.585 630.1C837.325 630.1 835.193 630.59 833.188 631.571C831.227 632.552 829.415 633.853 827.751 635.473C826.131 637.094 824.681 638.949 823.402 641.038C822.123 643.128 821.035 645.302 820.14 647.562C819.287 649.823 818.626 652.083 818.157 654.343C817.688 656.603 817.453 658.692 817.453 660.611V673.596C817.965 675.6 818.86 677.327 820.14 678.777C821.419 680.185 822.911 681.379 824.617 682.359C826.323 683.298 828.157 684.001 830.118 684.47C832.08 684.897 833.977 685.11 835.811 685.11C838.625 685.11 841.141 684.641 843.359 683.703C845.619 682.764 847.602 681.507 849.308 679.929C851.013 678.351 852.463 676.539 853.657 674.492C854.851 672.402 855.832 670.206 856.6 667.903C857.367 665.601 857.922 663.277 858.263 660.931C858.646 658.543 858.838 656.283 858.838 654.151ZM865.683 654.151C865.683 657.221 865.384 660.292 864.787 663.362C864.233 666.389 863.38 669.311 862.229 672.125C861.12 674.897 859.734 677.498 858.071 679.929C856.408 682.317 854.467 684.406 852.25 686.197C850.033 687.946 847.538 689.332 844.766 690.355C842.037 691.378 839.052 691.89 835.811 691.89C832.357 691.89 829.031 691.336 825.833 690.227C822.677 689.161 819.884 687.583 817.453 685.494V715.621C818.434 715.706 819.436 715.792 820.459 715.877C821.483 716.005 822.485 716.133 823.466 716.261C824.319 716.389 825.001 716.772 825.513 717.412C826.067 718.052 826.344 718.755 826.344 719.523C826.344 720.632 825.96 721.485 825.193 722.082C824.425 722.679 823.679 722.977 822.954 722.977H822.57C820.054 722.636 817.474 722.337 814.831 722.082C812.187 721.868 809.394 721.762 806.451 721.762C803.765 721.762 800.95 721.868 798.008 722.082C795.108 722.337 791.974 722.806 788.605 723.489H788.093C787.112 723.489 786.302 723.148 785.663 722.465C785.023 721.826 784.703 721.079 784.703 720.227C784.703 719.416 784.938 718.691 785.407 718.052C785.918 717.455 786.601 717.071 787.454 716.9C790.012 716.389 792.422 716.005 794.682 715.749V631.507C792.379 631.379 790.481 631.23 788.989 631.06C787.496 630.846 786.686 630.74 786.558 630.74C785.705 630.612 785.002 630.228 784.447 629.588C783.893 628.949 783.616 628.245 783.616 627.478C783.616 626.369 784 625.516 784.767 624.919C785.577 624.322 786.345 624.023 787.07 624.023H787.454C787.496 624.023 787.944 624.087 788.797 624.215C789.65 624.301 790.758 624.429 792.123 624.599C793.53 624.727 795.129 624.855 796.92 624.983C798.711 625.068 800.566 625.111 802.485 625.111C804.362 625.111 806.238 625.047 808.114 624.919C809.991 624.748 811.739 624.493 813.359 624.151C813.53 624.066 813.764 624.023 814.063 624.023C815.044 624.023 815.854 624.386 816.494 625.111C817.133 625.836 817.453 626.625 817.453 627.478V637.904C820.012 633.426 823.167 629.887 826.92 627.286C830.715 624.684 834.937 623.384 839.585 623.384C843.764 623.384 847.453 624.301 850.651 626.134C853.849 627.968 856.536 630.356 858.71 633.298C860.928 636.241 862.612 639.546 863.764 643.213C864.915 646.88 865.555 650.526 865.683 654.151ZM947.366 654.151C947.323 651.208 946.875 648.309 946.022 645.452C945.17 642.552 943.912 639.972 942.249 637.712C940.628 635.452 938.624 633.618 936.236 632.211C933.89 630.804 931.183 630.1 928.112 630.1C925.852 630.1 923.72 630.59 921.716 631.571C919.754 632.552 917.942 633.853 916.279 635.473C914.658 637.094 913.208 638.949 911.929 641.038C910.65 643.128 909.562 645.302 908.667 647.562C907.814 649.823 907.153 652.083 906.684 654.343C906.215 656.603 905.98 658.692 905.98 660.611V673.596C906.492 675.6 907.388 677.327 908.667 678.777C909.946 680.185 911.439 681.379 913.145 682.359C914.85 683.298 916.684 684.001 918.646 684.47C920.607 684.897 922.505 685.11 924.338 685.11C927.153 685.11 929.669 684.641 931.886 683.703C934.146 682.764 936.129 681.507 937.835 679.929C939.541 678.351 940.991 676.539 942.185 674.492C943.379 672.402 944.359 670.206 945.127 667.903C945.895 665.601 946.449 663.277 946.79 660.931C947.174 658.543 947.366 656.283 947.366 654.151ZM954.21 654.151C954.21 657.221 953.911 660.292 953.314 663.362C952.76 666.389 951.907 669.311 950.756 672.125C949.647 674.897 948.261 677.498 946.598 679.929C944.935 682.317 942.995 684.406 940.777 686.197C938.56 687.946 936.065 689.332 933.293 690.355C930.564 691.378 927.579 691.89 924.338 691.89C920.884 691.89 917.558 691.336 914.36 690.227C911.204 689.161 908.411 687.583 905.98 685.494V715.621C906.961 715.706 907.963 715.792 908.987 715.877C910.01 716.005 911.012 716.133 911.993 716.261C912.846 716.389 913.528 716.772 914.04 717.412C914.594 718.052 914.872 718.755 914.872 719.523C914.872 720.632 914.488 721.485 913.72 722.082C912.953 722.679 912.206 722.977 911.481 722.977H911.098C908.582 722.636 906.002 722.337 903.358 722.082C900.714 721.868 897.921 721.762 894.979 721.762C892.292 721.762 889.478 721.868 886.535 722.082C883.635 722.337 880.501 722.806 877.132 723.489H876.621C875.64 723.489 874.83 723.148 874.19 722.465C873.55 721.826 873.23 721.079 873.23 720.227C873.23 719.416 873.465 718.691 873.934 718.052C874.446 717.455 875.128 717.071 875.981 716.9C878.54 716.389 880.949 716.005 883.209 715.749V631.507C880.906 631.379 879.009 631.23 877.516 631.06C876.024 630.846 875.213 630.74 875.085 630.74C874.233 630.612 873.529 630.228 872.975 629.588C872.42 628.949 872.143 628.245 872.143 627.478C872.143 626.369 872.527 625.516 873.294 624.919C874.105 624.322 874.872 624.023 875.597 624.023H875.981C876.024 624.023 876.471 624.087 877.324 624.215C878.177 624.301 879.286 624.429 880.65 624.599C882.058 624.727 883.657 624.855 885.448 624.983C887.239 625.068 889.094 625.111 891.013 625.111C892.889 625.111 894.765 625.047 896.642 624.919C898.518 624.748 900.266 624.493 901.887 624.151C902.057 624.066 902.292 624.023 902.59 624.023C903.571 624.023 904.381 624.386 905.021 625.111C905.661 625.836 905.98 626.625 905.98 627.478V637.904C908.539 633.426 911.695 629.887 915.447 627.286C919.243 624.684 923.464 623.384 928.112 623.384C932.291 623.384 935.98 624.301 939.178 626.134C942.376 627.968 945.063 630.356 947.238 633.298C949.455 636.241 951.14 639.546 952.291 643.213C953.442 646.88 954.082 650.526 954.21 654.151Z" fill="#00A63E"/>
<path d="M618.939 278.005C627.238 278.15 634.423 281.812 638.613 285.228C649.97 279.723 658.806 279.712 665.261 282.021C671.561 284.276 675.533 288.718 677.333 292.275C689.042 290.761 696.949 293.348 702.072 297.283C707.091 301.138 709.391 306.252 709.99 309.934C727.469 315.489 731.671 327.168 731.558 332.901C774.208 340.625 789.002 365.871 791.035 377.732L791.062 377.887L790.995 378.029C786.286 388.061 775.193 392.811 763.423 394.723C752.057 396.568 739.911 395.794 731.849 394.461C741.431 417.675 746.312 435.356 748.51 448.057C749.622 454.482 750.049 459.639 750.049 463.595C750.049 467.475 749.637 470.233 749.04 471.906C748.42 512.965 733.914 532.225 715.841 539.469C698.098 546.58 677.113 542.018 662.972 535.561C662.255 542.327 659.687 550.893 656.749 558.901C653.705 567.198 650.248 574.939 647.991 579.537L647.977 579.567L647.958 579.596C643.018 586.955 637.697 591.439 632.311 593.805C626.921 596.171 621.504 596.401 616.401 595.318C606.374 593.19 597.551 585.987 592.393 579.913C579.022 585.201 568.995 583.151 561.9 578.344C554.908 573.606 550.824 566.235 549.155 560.766C536.264 558.922 528.843 554.288 524.836 549.149C521.014 544.247 520.34 538.938 520.942 535.303C506.162 534.98 496.5 530.032 490.437 523.893C484.305 517.685 481.885 510.295 481.544 505.351L481.538 505.271L481.558 505.194C491.01 467.778 520.856 429.929 535.376 414.806C520.428 414.579 505.636 410.042 494.656 405.275C489.021 402.829 484.376 400.317 481.217 398.284C479.64 397.27 478.419 396.365 477.628 395.641C477.236 395.281 476.926 394.945 476.734 394.645C476.639 394.496 476.556 394.329 476.52 394.152C476.488 393.996 476.49 393.811 476.574 393.634C482.424 371.512 496.637 356.766 512.006 347.328C527.191 338.003 543.526 333.845 554.109 332.855C558.295 306.579 581.143 294.961 592.258 292.369C600.918 281.365 610.477 277.857 618.939 278.005ZM669.692 308.296C660.129 300.572 653.105 298.858 648.163 300.043C643.463 301.169 640.814 304.874 639.735 308.113C626.124 301.527 616.183 301.436 609.261 304.126C602.426 306.782 598.622 312.113 597.168 316.355C587.285 317.479 580.273 319.999 575.465 323.39C570.595 326.824 568.008 331.138 566.991 335.733C565.085 344.354 568.717 353.884 572.863 360.431C557.035 355.74 542.436 358.351 530.566 363.584C518.372 368.959 509.036 377.11 504.157 382.998L503.878 383.334L504.175 383.656C505.474 385.064 507.378 385.882 509.541 386.306C511.709 386.73 514.186 386.769 516.693 386.578C521.706 386.195 526.923 384.883 530.2 383.791L530.235 383.779L530.269 383.763C555.936 370.732 569.773 378.263 573.542 383.478C573.594 459.793 610.54 485.505 629.364 488.792C643.193 496.725 651.274 510.579 653.576 516.498L653.632 516.641L653.759 516.728C669.208 527.362 680.616 530.304 688.637 529.577C696.673 528.848 701.258 524.438 702.999 520.519L703.293 519.858L702.57 519.817C684.778 518.818 675.695 516.111 671.54 513.219C669.479 511.783 668.688 510.344 668.572 509.091C668.465 507.921 668.937 506.804 669.72 505.872C686.986 510.001 697.576 509.149 703.801 506.296C710.101 503.408 711.894 498.483 711.54 494.769L711.51 494.455L711.214 494.347L709.714 493.783C702.357 490.945 697.161 487.826 693.639 485.049C690.049 482.218 688.226 479.763 687.596 478.342C689.135 475.444 690.985 473.72 692.951 472.812C694.966 471.882 697.154 471.783 699.344 472.22C703.745 473.097 708.063 476.127 710.694 478.676L711.105 479.073L711.444 478.614C713.095 476.381 714.902 475.057 716.729 474.364C718.557 473.671 720.439 473.599 722.255 473.922C725.902 474.57 729.242 476.805 731.196 478.678L732.082 479.526L732.042 478.301C731.24 453.827 724.022 431.332 720.502 423.12L720.491 423.095L720.478 423.071C710.691 405.696 705.754 393.112 703.552 384.456C702.451 380.128 702.036 376.792 702.036 374.337C702.036 371.883 702.45 370.37 702.945 369.612C714.18 356.56 715.56 346.739 712.462 339.739C709.439 332.91 702.242 328.989 696.473 327.415C694.788 318.647 689.987 313.605 684.63 310.895C679.335 308.217 673.524 307.827 669.692 308.296Z" fill="#00A63E"/>
<path d="M629.61 403.536C610.01 407.136 608.776 396.036 610.61 390.036C610.61 383.833 619.276 382.451 623.61 382.536C631.61 381.736 641.943 394.536 646.11 401.036C651.31 409.836 645.943 409.036 642.61 407.536C637.81 401.136 631.943 402.202 629.61 403.536Z" fill="#00A63E"/>
</svg>
