<svg width="984" height="763" viewBox="0 0 984 763" fill="none" xmlns="http://www.w3.org/2000/svg">
<path d="M400.355 199.5C432.355 169.9 465.355 195.5 477.855 212V358.5L397.855 277C385.355 263.5 368.355 229.1 400.355 199.5Z" fill="black" stroke="black"/>
<path d="M554.664 198.614C522.949 168.943 490.244 194.605 477.855 211.145V358L557.141 276.302C569.53 262.77 586.378 228.286 554.664 198.614Z" fill="black" stroke="black"/>
<path d="M319 163.5V279.5L296 275V111.5C301.2 91.1 320.167 83.3333 329 82H350.5V53C382 18 398 54 398 53V115C388 132.6 375.5 122.333 370.5 115V63.5H360V82V115C381.2 148.2 400.5 128.833 407.5 115V82H481V163.5H319Z" fill="black" stroke="black"/>
<path d="M643 163.401V279L666 274.516V111.581C660.8 91.251 641.833 83.5112 633 82.1825H611.5V53.2827C580 18.4037 564 54.2792 564 53.2827V115.068C574 132.608 586.5 122.376 591.5 115.068V63.7464H602V82.1825V115.068C580.8 148.154 561.5 128.854 554.5 115.068V82.1825H481V163.401H643Z" fill="black" stroke="black"/>
<path d="M656.363 0.5C658.706 0.500031 660.414 0.85959 661.616 1.48633C662.834 2.12209 663.519 3.02823 663.795 4.05762C664.066 5.06735 663.931 6.1453 663.617 7.12891C663.313 8.07841 662.832 8.9752 662.33 9.70215C661.101 14.9941 660.227 23.1725 661.567 30.6113C662.893 37.9762 666.357 44.4946 673.659 46.9102L674.009 47.0225L674.022 47.0254L674.034 47.0303C676.728 48.0101 681.234 48.9708 685.941 48.6514C690.645 48.332 695.498 46.7398 698.983 42.6748L699.016 42.6367L699.055 42.6055C703.705 38.9891 717.112 34.0656 734.086 42.5527C742.491 46.755 748 49.7186 751.474 51.7168C753.21 52.7155 754.443 53.4761 755.276 54.0312C755.691 54.3083 756.012 54.5373 756.249 54.7217C756.3 54.7617 756.349 54.8022 756.396 54.8408C758.871 52.8426 763.108 47.4804 762.365 40.0498L762.357 39.9727L762.374 39.8975C762.696 38.3646 762.943 35.7176 762.616 32.8184C762.288 29.9181 761.392 26.8079 759.466 24.3047C758.815 23.4574 758.426 22.6779 758.31 21.9688C758.191 21.2393 758.363 20.5979 758.793 20.0908C759.209 19.601 759.829 19.2781 760.537 19.0801C761.248 18.8809 762.089 18.7963 762.997 18.8125C766.603 18.8769 771.61 20.5399 774.716 23.6465C780.695 29.6247 785.863 34.2641 785.863 44C785.863 46.3499 786.048 48.2642 786.205 50.1855C786.361 52.1053 786.489 54.0237 786.362 56.3398C786.108 60.9728 784.84 67.1506 780.833 78.1709L780.825 78.1904C779.705 80.9109 778.811 87.6269 784.203 92.6338C787.649 95.8342 790.053 96.6577 792.241 97.9443C793.339 98.5904 794.358 99.3442 795.358 100.557C796.35 101.76 797.308 103.397 798.317 105.79L798.515 106.249C798.985 107.399 799.477 109.088 799.635 110.92C799.814 112.998 799.567 115.32 798.299 117.244C797.978 117.858 797.706 118.934 797.683 120.515C797.66 122.095 797.887 124.15 798.535 126.688C799.829 131.763 802.798 138.748 808.768 147.706C811.916 151.68 817.81 158.046 825.256 164.215C832.482 170.202 841.144 175.981 850.151 179.221L851.024 179.526L851.032 179.529C853.318 180.352 856.152 183.145 857.658 188.682C859.166 194.228 859.36 202.569 856.347 214.621C852.573 229.716 846.261 238.591 836.876 244.425C827.535 250.232 815.19 252.994 799.456 255.991C792.447 257.522 772.455 256.461 747.591 240.42L747.576 240.41L747.56 240.398C743.604 237.392 732.04 234.117 718.206 246.362C717.402 247.123 716.036 248.27 714.412 249.667C712.778 251.071 710.864 252.745 708.939 254.586C705.074 258.281 701.216 262.598 699.459 266.697L699.365 266.917L699.133 266.981L673.997 273.981L673.363 274.158V113.557C672.033 107.171 664.243 90.8204 643.583 76.915C632.988 69.7835 629.546 57.8745 629.5 46.002C629.453 34.1273 632.8 22.1852 635.902 14.8066L635.916 14.7725L635.935 14.7402C637.376 12.3663 640.111 8.82258 643.655 5.86621C647.193 2.91444 651.596 0.500159 656.363 0.5ZM792.873 212.5C792.374 212.5 791.955 212.769 791.638 213.137C791.322 213.504 791.07 214.007 790.885 214.59C790.515 215.759 790.381 217.353 790.618 219.133C791.093 222.705 793.072 227.104 797.78 230.49C801.511 233.175 804.404 233.801 806.541 233.38C808.679 232.958 809.949 231.505 810.461 230.276L810.59 229.967L810.353 229.73L793.225 212.646L793.079 212.5H792.873ZM716.944 118.517C714.998 119.034 712.781 119.861 710.765 120.997C708.755 122.13 706.909 123.59 705.749 125.386C704.576 127.2 704.113 129.347 704.866 131.782C705.611 134.192 707.534 136.835 711.015 139.712C714.496 142.589 717.473 144.029 720.012 144.401C722.573 144.776 724.65 144.057 726.285 142.71C727.903 141.375 729.068 139.44 729.875 137.395C730.678 135.357 731.139 133.174 731.336 131.281C731.742 129.45 731.481 126.664 729.457 124.126C727.42 121.572 723.647 119.328 717.134 118.504L717.038 118.492L716.944 118.517Z" fill="black"/>
<path d="M286.21 293.267C323.546 281.625 357.946 299.716 370.592 310.289C400.593 318.055 418.158 329.081 429.413 341.216C440.675 353.358 445.579 366.573 450.324 378.56C452.762 384.721 451.972 392.607 449.32 400.966C446.662 409.339 442.108 418.27 436.908 426.572C431.706 434.876 425.845 442.572 420.56 448.476C417.918 451.428 415.414 453.938 413.204 455.855C411.006 457.763 409.062 459.115 407.541 459.71C401.761 461.972 397.059 463.124 392.083 462.869C387.113 462.614 381.918 460.957 375.142 457.695C369.597 455.025 366.152 450.2 364.098 445.3C362.045 440.403 361.359 435.387 361.359 432.245V432.15L361.393 432.062C371.244 406.842 369.56 373.637 367.429 359.745H362.34C362.083 366.931 361.54 377.897 360.72 388.059C360.301 393.255 359.809 398.247 359.246 402.418C358.686 406.573 358.05 409.96 357.328 411.918C356.431 414.352 354.759 416.736 353.216 419.285C351.656 421.862 350.178 424.676 349.538 428.087C348.265 434.876 350.287 444.228 362.246 458.928C371.723 470.577 384.759 474.204 396.713 473.408C408.695 472.61 419.501 467.375 424.475 461.424L424.703 461.15L425.036 461.277C430.153 463.222 434.929 467.361 439.286 472.737C443.648 478.118 447.62 484.775 451.12 491.809C458.118 505.877 463.253 521.512 465.843 531.621L465.937 531.986L465.612 532.175L330.612 611.176L330.421 611.288L330.21 611.221C312.018 605.561 300.847 591.081 294.273 575.362C287.7 559.645 285.691 542.625 285.859 531.737L285.864 531.465L286.094 531.32C301.511 521.709 311.331 515.366 317.307 509.439C320.285 506.486 322.291 503.652 323.556 500.588C324.672 497.886 325.221 494.981 325.335 491.623C287.035 535.84 245.525 529.238 231.073 519.155L230.745 518.926L230.896 518.556C232.228 515.278 233.973 513.236 236.098 511.999C238.211 510.768 240.645 510.365 243.288 510.258C245.903 510.151 248.864 510.335 251.917 510.327C254.763 510.32 257.775 510.149 260.925 509.449C247.355 494.107 245.517 480.22 247.373 472.626L247.431 472.388L247.655 472.288C255.423 468.802 260.046 465.376 262.45 462.164C264.829 458.983 265.039 456.008 263.969 453.303C262.883 450.558 260.452 448.033 257.439 445.87C254.462 443.732 250.963 441.981 247.767 440.745C243.22 440.754 236.461 441.455 230.843 443.514C225.155 445.599 220.859 448.983 220.859 454.245C220.859 459.65 223.669 463.771 227.242 466.748C230.596 469.543 234.589 471.296 237.431 472.11L237.984 472.26L238.325 472.348L238.357 472.699C238.777 477.321 238.752 484.721 237.312 491.93C235.876 499.12 233.009 506.235 227.654 510.148C224.973 512.107 222.296 512.899 219.729 512.857C217.169 512.816 214.752 511.948 212.578 510.649C208.239 508.058 204.786 503.707 202.926 500.495L202.882 500.418L202.867 500.331C201.946 495.059 200.844 486.161 200.522 476.574C200.2 466.995 200.657 456.685 202.877 448.612C207.217 432.833 215.782 423.141 219.82 420.026C215.147 389.39 217.78 365.579 219.782 357.015L216.553 355.401C211.61 363.857 209.993 375.675 210.022 387.131C210.051 398.75 211.77 409.913 213.346 416.631L213.4 416.861L213.256 417.049L195.256 440.549L195.121 440.724L194.901 440.743C193.456 440.863 192.388 440.085 191.638 438.899C190.9 437.731 190.426 436.11 190.128 434.353C189.547 430.922 189.607 426.784 189.843 423.932C186.452 420.471 183.767 415.526 181.785 410.761C179.768 405.914 178.459 401.208 177.87 398.345L177.864 398.319L177.862 398.293C174.338 362.047 197.506 337.889 208.484 325.414C212.981 320.303 218.851 317.972 224.332 317.126C229.536 316.323 234.42 316.854 237.521 317.638C237.878 316.718 238.734 315.582 240.148 314.274C241.855 312.694 244.443 310.802 248.16 308.661C255.594 304.378 267.59 299.074 286.21 293.267ZM242.585 384.237C240.603 383.411 238.326 383.202 235.744 384.01C233.173 384.816 230.325 386.622 227.164 389.782L227.113 389.834L227.078 389.896C226.035 391.81 225.103 395.022 225.674 398.492C226.25 401.987 228.343 405.697 233.266 408.568C236.367 410.377 239.281 410.718 241.85 410.074C244.407 409.432 246.572 407.828 248.216 405.829C249.86 403.83 251.005 401.414 251.514 399.103C252.02 396.805 251.913 394.535 250.95 392.883C249.202 389.887 246.505 385.87 242.585 384.237ZM309.585 384.237C307.603 383.411 305.326 383.202 302.744 384.01C300.173 384.816 297.325 386.622 294.164 389.782L294.113 389.834L294.078 389.896C293.035 391.81 292.103 395.022 292.674 398.492C293.25 401.987 295.343 405.697 300.266 408.568C303.367 410.377 306.281 410.718 308.85 410.074C311.407 409.432 313.572 407.828 315.216 405.829C316.86 403.83 318.005 401.414 318.514 399.103C319.02 396.805 318.913 394.535 317.95 392.883C316.202 389.887 313.505 385.87 309.585 384.237Z" fill="black"/>
<path d="M204.61 1.8125C207.592 1.13932 210.132 1.59539 212.297 2.77051C214.473 3.95195 216.296 5.87635 217.794 8.17383C220.794 12.775 222.428 18.7717 223.005 22.8945L223.999 22.7979C223.836 19.8671 224.351 15.2804 226.423 11.0967C228.486 6.92934 232.085 3.17308 238.11 1.8125C244.034 0.475087 248.647 3.59197 252.061 8.19824C255.476 12.8074 257.605 18.8097 258.512 22.9326L258.658 23.5967L259.248 23.2598C262.674 21.3019 268.076 19.759 273.172 21.4014C278.223 23.0295 283.135 27.8426 285.511 38.9297C290.247 61.0339 274.983 76.7876 266.736 81.9004L265.245 82.8252H267C271.791 82.8252 276.459 85.9506 280.392 89.9863C284.266 93.9628 287.338 98.7345 289 101.949V270.856L218.418 252.915L209.987 216.712L209.735 215.63L209.092 216.536C204.727 222.686 200.455 226.077 196.44 227.561C192.439 229.039 188.64 228.642 185.165 227.105C178.179 224.017 172.526 216.334 169.459 210.126C165.119 199.066 166.018 187.609 168.93 177.754C171.843 167.892 176.761 159.674 180.391 155.138L180.712 154.736L180.302 154.426C171.186 147.538 160.19 145.359 150.185 145.413C140.841 145.464 132.319 147.463 126.914 149.441C135.822 128.927 154.642 122.808 163.028 122.324L163.5 122.297V121.825C163.5 101.278 178.994 87.2137 186.749 82.7588L187.782 82.165L186.635 81.8438C182.631 80.7225 173.43 75.1155 169.479 61.6846C167.643 55.4408 166.915 52.1832 167.028 49.8848C167.138 47.6469 168.044 46.3027 169.728 43.8379C170.955 42.0414 172.556 39.6975 174.444 36.0557C175.794 33.4533 177.594 31.9103 179.611 31.1006C181.639 30.2868 183.928 30.1972 186.269 30.5811C190.961 31.3509 195.737 34.0031 198.7 36.2256L199.427 35.5645L193.974 26.6426C193.246 23.0252 192.919 17.4795 194.27 12.5059C195.626 7.51137 198.648 3.15873 204.61 1.8125ZM216.629 118.587C213.839 118.166 211.732 119.318 210.261 120.891C208.804 122.448 207.948 124.436 207.601 125.8H207.602C207.501 126.145 207.473 126.762 207.528 127.46C207.587 128.198 207.744 129.096 208.06 129.998C208.689 131.797 209.986 133.691 212.463 134.231C217.214 135.267 222.388 133.242 223.996 129.034C224.794 126.946 224.665 124.583 223.457 122.608C222.245 120.627 219.985 119.093 216.629 118.587Z" fill="black" stroke="black"/>
<path d="M140.961 688.744H140.513C138.935 688.531 137.358 688.382 135.78 688.296C134.202 688.168 132.56 688.104 130.854 688.104C128.808 688.104 126.611 688.211 124.266 688.424C121.921 688.595 119.277 688.915 116.334 689.384H115.759C114.863 689.384 114.096 689.064 113.456 688.424C112.816 687.742 112.497 686.974 112.497 686.122C112.497 685.269 112.752 684.522 113.264 683.883C113.819 683.243 114.479 682.859 115.247 682.731C117.166 682.476 118.978 682.241 120.684 682.028C122.39 681.815 123.989 681.644 125.481 681.516C125.78 680.024 126.121 678.019 126.505 675.503C126.931 672.987 127.315 670.322 127.656 667.508C127.997 664.651 128.275 661.794 128.488 658.937C128.744 656.037 128.872 653.478 128.872 651.261C128.872 649.171 128.744 647.039 128.488 644.864C128.232 642.647 127.72 640.643 126.953 638.852C126.185 637.061 125.076 635.611 123.626 634.502C122.219 633.351 120.343 632.775 117.998 632.775C115.013 632.775 112.433 633.393 110.258 634.63C108.126 635.867 106.292 637.402 104.757 639.235C103.222 641.026 101.964 642.967 100.983 645.056C100.045 647.146 99.2985 649.043 98.7441 650.749C98.7441 654.16 98.6162 657.401 98.3604 660.472C98.2324 662.348 98.0618 664.288 97.8486 666.292C97.6354 668.254 97.4222 670.173 97.209 672.049C96.9958 673.883 96.7826 675.631 96.5693 677.294C96.3561 678.915 96.1642 680.322 95.9937 681.516C97.3156 681.516 98.6589 681.58 100.023 681.708C101.431 681.793 102.881 681.9 104.373 682.028C105.311 682.113 106.036 682.476 106.548 683.115C107.102 683.755 107.379 684.501 107.379 685.354C107.379 686.377 107.038 687.209 106.356 687.849C105.674 688.446 104.927 688.744 104.117 688.744H103.733C101.942 688.531 100.258 688.403 98.6802 688.36C97.1024 688.275 95.5459 688.232 94.0107 688.232C91.7933 688.232 89.5545 688.339 87.2944 688.552C85.077 688.723 82.6463 689 80.0024 689.384H79.4907C78.5526 689.384 77.7637 689.064 77.124 688.424C76.527 687.742 76.2285 686.974 76.2285 686.122C76.2285 685.269 76.4844 684.522 76.9961 683.883C77.5505 683.243 78.2541 682.859 79.1069 682.731C80.9406 682.476 82.6676 682.262 84.2881 682.092C85.9085 681.879 87.5503 681.729 89.2134 681.644C89.384 680.578 89.5758 679.235 89.7891 677.614C90.0023 675.951 90.2155 674.139 90.4287 672.177C90.6846 670.216 90.9191 668.19 91.1323 666.101C91.3882 664.011 91.5801 661.986 91.708 660.024C91.7933 658.574 91.8786 657.06 91.9639 655.482C92.0492 653.862 92.0918 652.199 92.0918 650.493C92.0918 648.446 91.9852 646.378 91.772 644.289C91.5588 642.199 91.0897 640.301 90.3647 638.596C89.6398 636.89 88.5951 635.504 87.2305 634.438C85.9085 633.329 84.1175 632.775 81.8574 632.775C79.7253 632.775 77.7637 633.265 75.9727 634.246C74.1816 635.184 72.5612 636.4 71.1113 637.892C69.6615 639.342 68.3822 640.962 67.2734 642.753C66.2074 644.502 65.2905 646.208 64.5229 647.871C63.7554 649.491 63.137 650.941 62.668 652.22C62.2415 653.457 61.9644 654.31 61.8364 654.779L61.7085 682.731C62.4761 682.817 63.2223 682.902 63.9473 682.987C64.6722 683.073 65.3971 683.158 66.1221 683.243C66.9749 683.371 67.6785 683.755 68.2329 684.395C68.8299 685.034 69.1284 685.78 69.1284 686.633C69.1284 687.571 68.766 688.36 68.041 689C67.3587 689.597 66.5911 689.896 65.7383 689.896H65.3545C62.7959 689.554 60.1733 689.277 57.4868 689.064C54.8429 688.851 52.0498 688.744 49.1074 688.744C46.4635 688.744 43.6704 688.851 40.728 689.064C37.8283 689.32 34.7153 689.789 31.3892 690.471C31.2612 690.471 31.1546 690.493 31.0693 690.535C30.984 690.578 30.8774 690.599 30.7495 690.599C29.7687 690.599 28.9798 690.237 28.3828 689.512C27.7858 688.787 27.4873 687.998 27.4873 687.145C27.4873 686.377 27.7218 685.674 28.1909 685.034C28.66 684.395 29.2996 684.011 30.1099 683.883C31.6877 683.542 33.2015 683.286 34.6514 683.115C36.1012 682.902 37.5511 682.731 39.001 682.604V634.758C36.3145 634.63 34.0544 634.481 32.2207 634.31C30.4297 634.097 29.4276 633.99 29.2144 633.99C28.3615 633.862 27.6579 633.479 27.1035 632.839C26.5918 632.199 26.3359 631.453 26.3359 630.6C26.3359 629.534 26.7197 628.724 27.4873 628.169C28.2549 627.572 29.0011 627.274 29.7261 627.274H30.1099C30.1525 627.274 30.6429 627.338 31.5811 627.466C32.5192 627.551 33.7345 627.679 35.2271 627.85C36.7622 627.978 38.4893 628.105 40.4082 628.233C42.3271 628.319 44.3101 628.361 46.3569 628.361C48.4038 628.361 50.408 628.297 52.3696 628.169C54.3312 627.999 56.1222 627.7 57.7427 627.274H58.3823C59.3631 627.274 60.1733 627.615 60.813 628.297C61.4953 628.98 61.8364 629.747 61.8364 630.6V638.979C62.8599 637.316 64.0326 635.717 65.3545 634.182C66.7191 632.647 68.2329 631.282 69.896 630.088C71.5591 628.894 73.3927 627.935 75.397 627.21C77.4012 626.485 79.5547 626.123 81.8574 626.123C83.9043 626.123 85.7593 626.421 87.4224 627.018C89.0854 627.615 90.5566 628.468 91.8359 629.577C93.1579 630.643 94.2879 631.922 95.2261 633.415C96.1642 634.907 96.9105 636.528 97.4648 638.276C98.403 636.826 99.5117 635.376 100.791 633.926C102.113 632.476 103.605 631.176 105.269 630.024C106.974 628.873 108.872 627.935 110.961 627.21C113.094 626.485 115.439 626.123 117.998 626.123C121.58 626.123 124.501 626.89 126.761 628.425C129.063 629.96 130.876 631.922 132.198 634.31C133.52 636.698 134.437 639.385 134.948 642.37C135.46 645.355 135.716 648.276 135.716 651.133C135.716 653.393 135.588 655.93 135.332 658.745C135.119 661.516 134.842 664.288 134.5 667.06C134.159 669.832 133.797 672.497 133.413 675.056C133.072 677.572 132.752 679.682 132.454 681.388C134.031 681.388 135.545 681.452 136.995 681.58C138.445 681.665 139.895 681.815 141.345 682.028C142.198 682.113 142.901 682.476 143.456 683.115C144.053 683.755 144.351 684.501 144.351 685.354C144.351 686.25 143.989 687.038 143.264 687.721C142.581 688.403 141.814 688.744 140.961 688.744ZM192.772 690.599C192.687 690.599 192.581 690.578 192.453 690.535C192.367 690.493 192.261 690.471 192.133 690.471C188.679 689.789 185.395 689.299 182.282 689C179.169 688.659 176.078 688.488 173.007 688.488C169.894 688.488 166.803 688.659 163.732 689C160.662 689.299 157.421 689.789 154.01 690.471C153.882 690.471 153.775 690.493 153.69 690.535C153.605 690.578 153.498 690.599 153.37 690.599C152.389 690.599 151.579 690.237 150.939 689.512C150.342 688.787 150.044 687.998 150.044 687.145C150.044 686.377 150.278 685.674 150.748 685.034C151.259 684.395 151.899 684.011 152.667 683.883C154.159 683.542 155.652 683.286 157.144 683.115C158.679 682.902 160.172 682.689 161.622 682.476V633.479C158.935 633.351 156.675 633.18 154.841 632.967C153.008 632.754 151.984 632.647 151.771 632.647C150.918 632.519 150.215 632.135 149.66 631.496C149.148 630.856 148.893 630.11 148.893 629.257C148.893 628.191 149.276 627.381 150.044 626.826C150.812 626.272 151.558 625.995 152.283 625.995H152.667C152.709 625.995 153.2 626.059 154.138 626.187C155.076 626.272 156.291 626.378 157.784 626.506C159.319 626.634 161.046 626.762 162.965 626.89C164.884 626.975 166.867 627.018 168.914 627.018C170.96 627.018 172.965 626.954 174.926 626.826C176.888 626.656 178.679 626.378 180.299 625.995H181.003C181.984 625.995 182.794 626.336 183.434 627.018C184.073 627.658 184.393 628.404 184.393 629.257L184.265 682.476C185.758 682.689 187.25 682.902 188.743 683.115C190.278 683.286 191.834 683.542 193.412 683.883C194.222 684.011 194.883 684.395 195.395 685.034C195.907 685.674 196.163 686.377 196.163 687.145C196.163 688.126 195.8 688.936 195.075 689.576C194.35 690.258 193.583 690.599 192.772 690.599ZM183.498 606.485C183.498 608.063 183.199 609.556 182.602 610.963C182.005 612.327 181.174 613.521 180.107 614.545C179.084 615.568 177.869 616.379 176.461 616.976C175.097 617.573 173.626 617.871 172.048 617.871C170.47 617.871 168.978 617.573 167.57 616.976C166.206 616.379 165.012 615.568 163.988 614.545C162.965 613.521 162.155 612.327 161.558 610.963C160.961 609.556 160.662 608.063 160.662 606.485C160.662 604.908 160.961 603.436 161.558 602.072C162.155 600.665 162.965 599.449 163.988 598.426C165.012 597.402 166.206 596.592 167.57 595.995C168.978 595.398 170.47 595.1 172.048 595.1C173.626 595.1 175.097 595.398 176.461 595.995C177.869 596.592 179.084 597.402 180.107 598.426C181.174 599.449 182.005 600.665 182.602 602.072C183.199 603.436 183.498 604.908 183.498 606.485ZM293.965 648.894C293.624 648.894 293.41 648.851 293.325 648.766C291.108 648.382 288.997 648.126 286.993 647.999C285.031 647.828 283.091 647.7 281.172 647.615C282.75 649.448 284.072 651.687 285.138 654.331C286.246 656.932 286.801 660.024 286.801 663.606C286.801 667.017 286.268 670.109 285.202 672.881C284.178 675.61 282.771 678.062 280.98 680.237C279.189 682.369 277.078 684.224 274.647 685.802C272.259 687.337 269.701 688.616 266.972 689.64C264.285 690.663 261.492 691.409 258.592 691.878C255.693 692.39 252.857 692.646 250.085 692.646C242.836 692.433 236.354 691.217 230.64 689C224.925 686.74 220.064 683.584 216.056 679.533C212.047 675.482 208.977 670.578 206.845 664.821C204.755 659.064 203.71 652.54 203.71 645.248C203.71 638.766 204.393 633.009 205.757 627.978C207.122 622.903 208.977 618.468 211.322 614.673C213.71 610.835 216.503 607.615 219.702 605.014C222.9 602.37 226.29 600.238 229.872 598.618C233.497 596.955 237.249 595.761 241.13 595.036C245.01 594.268 248.827 593.884 252.58 593.884C256.332 593.884 259.701 594.289 262.686 595.1C265.671 595.867 268.336 596.848 270.682 598.042C273.027 599.236 275.031 600.579 276.694 602.072C278.4 603.522 279.807 604.908 280.916 606.229L284.434 596.123C284.69 595.441 285.116 594.908 285.713 594.524C286.31 594.097 286.929 593.884 287.568 593.884C288.634 593.884 289.466 594.268 290.063 595.036C290.66 595.761 290.958 596.507 290.958 597.274C290.958 597.402 290.937 597.573 290.895 597.786C290.852 597.957 290.788 598.149 290.703 598.362L280.532 628.105C280.319 628.745 279.914 629.278 279.317 629.705C278.72 630.088 278.059 630.28 277.334 630.28C276.353 630.28 275.543 629.939 274.903 629.257C274.264 628.532 273.944 627.743 273.944 626.89C273.944 626.762 273.965 626.613 274.008 626.442C274.05 626.272 274.114 626.08 274.2 625.867L278.293 613.905C277.227 612.242 275.927 610.643 274.392 609.108C272.899 607.53 271.236 606.144 269.402 604.95C267.611 603.756 265.714 602.797 263.709 602.072C261.705 601.347 259.701 600.984 257.697 600.984C252.58 600.984 248.059 602.093 244.136 604.311C240.213 606.485 236.908 609.492 234.222 613.33C231.578 617.125 229.574 621.56 228.209 626.634C226.844 631.709 226.162 637.125 226.162 642.881C226.162 645.44 226.311 648.276 226.61 651.389C226.951 654.502 227.484 657.657 228.209 660.855C228.977 664.054 229.957 667.145 231.151 670.13C232.388 673.115 233.902 675.781 235.693 678.126C237.484 680.471 239.573 682.348 241.961 683.755C244.349 685.162 247.1 685.866 250.213 685.866C255.415 685.866 259.893 685.226 263.646 683.947C267.398 682.667 270.468 680.983 272.856 678.894C275.287 676.804 277.078 674.416 278.229 671.729C279.381 669.043 279.957 666.292 279.957 663.478C279.957 661.005 279.615 658.873 278.933 657.082C278.251 655.248 277.441 653.734 276.502 652.54C275.564 651.303 274.605 650.344 273.624 649.662C272.643 648.979 271.876 648.51 271.321 648.254C269.061 648.553 267.036 648.937 265.245 649.406C263.496 649.875 262.004 650.323 260.767 650.749C259.573 651.175 258.635 651.559 257.953 651.9C257.313 652.199 256.972 652.348 256.929 652.348C256.46 652.689 255.927 652.86 255.33 652.86C254.349 652.86 253.539 652.519 252.899 651.836C252.26 651.111 251.94 650.323 251.94 649.47C251.94 648.233 252.516 647.252 253.667 646.527C253.795 646.485 254.477 646.165 255.714 645.568C256.951 644.971 258.678 644.331 260.895 643.649C263.155 642.924 265.884 642.284 269.083 641.73C272.323 641.176 275.991 640.898 280.084 640.898C284.477 640.898 289.295 641.346 294.541 642.242C295.308 642.37 295.948 642.753 296.459 643.393C297.014 643.99 297.291 644.694 297.291 645.504C297.291 646.613 296.907 647.465 296.14 648.062C295.372 648.617 294.647 648.894 293.965 648.894ZM363.175 657.273C361.597 657.273 360.104 656.975 358.697 656.378C357.333 655.781 356.139 654.971 355.115 653.947C354.092 652.924 353.282 651.73 352.685 650.365C352.088 648.958 351.789 647.465 351.789 645.888C351.789 644.31 352.088 642.839 352.685 641.474C353.282 640.067 354.092 638.852 355.115 637.828C356.139 636.762 357.333 635.931 358.697 635.333C360.104 634.694 361.597 634.374 363.175 634.374C363.388 634.374 363.58 634.395 363.75 634.438C363.964 634.481 364.177 634.502 364.39 634.502C363.281 633.649 361.981 633.009 360.488 632.583C359.038 632.114 357.354 631.879 355.435 631.879C353.004 631.879 350.894 632.391 349.103 633.415C347.312 634.395 345.776 635.653 344.497 637.188C343.26 638.681 342.258 640.323 341.491 642.114C340.723 643.862 340.105 645.525 339.636 647.103C339.209 648.638 338.911 649.96 338.74 651.069C338.612 652.178 338.548 652.817 338.548 652.988L338.42 681.388C339.913 681.516 341.405 681.708 342.898 681.964C344.433 682.22 345.99 682.476 347.567 682.731C348.378 682.945 349.039 683.371 349.55 684.011C350.062 684.608 350.318 685.311 350.318 686.122C350.318 687.06 349.955 687.849 349.23 688.488C348.506 689.085 347.738 689.384 346.928 689.384H346.288C342.834 688.744 339.55 688.254 336.438 687.913C333.325 687.571 330.233 687.401 327.163 687.401C324.092 687.401 321.022 687.571 317.952 687.913C314.881 688.254 311.619 688.744 308.165 689.384H307.525C306.545 689.384 305.756 689.064 305.159 688.424C304.562 687.742 304.263 686.974 304.263 686.122C304.263 685.311 304.498 684.608 304.967 684.011C305.436 683.371 306.076 682.945 306.886 682.731C308.378 682.476 309.871 682.22 311.363 681.964C312.856 681.708 314.327 681.516 315.777 681.388V633.734C313.09 633.606 310.83 633.436 308.997 633.223C307.163 633.009 306.139 632.86 305.926 632.775C305.073 632.69 304.37 632.348 303.815 631.751C303.304 631.112 303.048 630.366 303.048 629.513C303.048 628.447 303.41 627.615 304.135 627.018C304.903 626.421 305.67 626.123 306.438 626.123H306.886C306.928 626.165 307.419 626.25 308.357 626.378C309.295 626.464 310.51 626.57 312.003 626.698C313.495 626.826 315.201 626.933 317.12 627.018C319.082 627.103 321.065 627.146 323.069 627.146C325.116 627.146 327.12 627.082 329.082 626.954C331.043 626.826 332.855 626.592 334.519 626.25C334.604 626.165 334.817 626.123 335.158 626.123C336.139 626.123 336.949 626.485 337.589 627.21C338.229 627.892 338.548 628.66 338.548 629.513V634.118C340.382 631.56 342.685 629.449 345.457 627.786C348.271 626.08 351.597 625.227 355.435 625.227C358.335 625.312 360.979 625.824 363.367 626.762C365.755 627.658 367.802 628.916 369.507 630.536C371.256 632.114 372.599 634.033 373.537 636.293C374.518 638.51 375.008 641.005 375.008 643.777C375.008 645.525 374.731 647.21 374.177 648.83C373.622 650.451 372.833 651.9 371.81 653.18C370.787 654.416 369.529 655.418 368.036 656.186C366.586 656.911 364.966 657.273 363.175 657.273ZM426.18 666.612C426.095 665.887 426.031 665.141 425.988 664.374C425.946 663.606 425.924 662.817 425.924 662.007H423.558C421.852 662.007 419.826 662.135 417.481 662.391C415.178 662.646 412.79 663.052 410.317 663.606C407.844 664.16 405.392 664.907 402.961 665.845C400.53 666.74 398.355 667.849 396.437 669.171C394.518 670.45 392.961 671.964 391.767 673.712C390.616 675.461 390.04 677.465 390.04 679.725C390.04 680.919 390.317 681.943 390.872 682.795C391.469 683.648 392.194 684.352 393.046 684.906C393.942 685.418 394.923 685.802 395.989 686.058C397.055 686.271 398.078 686.377 399.059 686.377C402.087 686.377 404.944 685.802 407.63 684.65C410.36 683.456 412.875 681.921 415.178 680.045C417.481 678.126 419.549 675.994 421.383 673.648C423.216 671.303 424.816 668.958 426.18 666.612ZM456.819 688.744H456.563C455.839 688.659 455.092 688.616 454.325 688.616C453.557 688.616 452.811 688.616 452.086 688.616C448.077 688.616 444.218 688.872 440.508 689.384C436.841 689.896 433.152 690.684 429.442 691.75C429.314 691.75 429.187 691.772 429.059 691.814C428.931 691.857 428.76 691.878 428.547 691.878C427.566 691.878 426.756 691.495 426.116 690.727C425.519 690.002 425.221 689.256 425.221 688.488V687.977C425.221 687.891 425.327 687.038 425.541 685.418C425.754 683.755 425.967 681.452 426.18 678.51C424.347 680.557 422.385 682.476 420.295 684.267C418.249 686.015 416.074 687.55 413.771 688.872C411.511 690.151 409.166 691.153 406.735 691.878C404.304 692.646 401.788 693.03 399.187 693.03C397.14 693.03 395.157 692.71 393.238 692.07C391.319 691.473 389.614 690.599 388.121 689.448C386.671 688.296 385.499 686.91 384.603 685.29C383.75 683.627 383.324 681.772 383.324 679.725C383.324 676.527 384.006 673.712 385.371 671.282C386.778 668.851 388.611 666.74 390.872 664.949C393.132 663.116 395.69 661.602 398.547 660.408C401.447 659.171 404.389 658.19 407.375 657.465C410.36 656.698 413.259 656.165 416.074 655.866C418.888 655.525 421.383 655.354 423.558 655.354H425.093C425.093 652.753 424.624 650.216 423.686 647.743C422.79 645.269 421.511 643.073 419.848 641.154C418.227 639.235 416.287 637.7 414.027 636.549C411.767 635.355 409.272 634.758 406.543 634.758C404.539 634.758 402.577 635.333 400.658 636.485C398.739 637.594 397.034 639.022 395.541 640.771C394.049 642.519 392.833 644.48 391.895 646.655C391 648.83 390.552 650.941 390.552 652.988C390.552 653.841 390.189 654.566 389.464 655.163C388.782 655.717 388.014 655.994 387.162 655.994C386.223 655.994 385.413 655.653 384.731 654.971C384.049 654.246 383.708 653.457 383.708 652.604C383.708 650.557 384.07 648.425 384.795 646.208C385.52 643.947 386.565 641.751 387.929 639.619C389.336 637.444 391.021 635.397 392.982 633.479C394.987 631.56 397.247 629.875 399.763 628.425C402.321 626.933 405.114 625.76 408.142 624.907C411.17 624.054 414.389 623.628 417.801 623.628C422.577 623.628 426.649 624.374 430.018 625.867C433.43 627.359 436.265 629.385 438.525 631.943C440.828 634.502 442.64 637.466 443.962 640.834C445.284 644.203 446.286 647.764 446.969 651.517C447.651 655.269 448.077 659.086 448.248 662.966C448.461 666.847 448.568 670.557 448.568 674.096C448.568 675.887 448.547 677.422 448.504 678.702C448.461 679.981 448.44 681.047 448.44 681.9C449.08 681.9 449.719 681.879 450.359 681.836C451.041 681.793 451.702 681.772 452.342 681.772C453.067 681.772 453.813 681.793 454.581 681.836C455.391 681.879 456.18 681.9 456.947 681.9C457.885 681.985 458.632 682.348 459.186 682.987C459.783 683.627 460.082 684.416 460.082 685.354C460.082 686.25 459.762 687.038 459.122 687.721C458.525 688.403 457.757 688.744 456.819 688.744ZM544.003 686.122C543.918 686.974 543.534 687.699 542.852 688.296C542.17 688.851 541.402 689.128 540.549 689.128H540.293C538.247 688.915 536.264 688.765 534.345 688.68C532.468 688.552 530.613 688.488 528.78 688.488C526.093 688.488 523.513 688.616 521.04 688.872C518.609 689.085 516.221 689.384 513.876 689.768C513.791 689.768 513.684 689.789 513.556 689.832C513.471 689.874 513.386 689.896 513.3 689.896C512.405 689.896 511.616 689.554 510.934 688.872C510.251 688.147 509.91 687.358 509.91 686.505C509.91 685.738 510.166 685.034 510.678 684.395C511.232 683.755 511.893 683.371 512.661 683.243C514.452 682.902 516.243 682.646 518.034 682.476C519.867 682.262 521.744 682.07 523.663 681.9C524.046 680.578 524.451 678.787 524.878 676.527C525.304 674.267 525.688 671.836 526.029 669.235C526.413 666.634 526.712 664.011 526.925 661.367C527.181 658.723 527.309 656.357 527.309 654.267C527.309 652.092 527.181 649.726 526.925 647.167C526.712 644.608 526.179 642.22 525.326 640.003C524.515 637.743 523.321 635.867 521.744 634.374C520.208 632.882 518.14 632.135 515.539 632.135C512.597 632.135 509.868 632.86 507.352 634.31C504.836 635.76 502.661 637.615 500.827 639.875C499.036 642.092 497.608 644.544 496.542 647.231C495.518 649.917 495.006 652.497 495.006 654.971V655.099L494.878 683.243C495.646 683.328 496.392 683.414 497.117 683.499C497.842 683.542 498.567 683.627 499.292 683.755C500.145 683.84 500.848 684.203 501.403 684.842C502 685.439 502.298 686.164 502.298 687.017C502.298 687.955 501.936 688.765 501.211 689.448C500.529 690.13 499.761 690.471 498.908 690.471C498.738 690.471 498.61 690.407 498.524 690.279C495.966 690.023 493.343 689.768 490.657 689.512C488.013 689.256 485.22 689.128 482.277 689.128C479.633 689.128 476.84 689.256 473.898 689.512C470.998 689.81 467.885 690.258 464.559 690.855C464.389 690.94 464.175 690.983 463.919 690.983C462.939 690.983 462.15 690.62 461.553 689.896C460.956 689.171 460.657 688.382 460.657 687.529C460.657 686.761 460.892 686.058 461.361 685.418C461.83 684.778 462.47 684.395 463.28 684.267C464.858 683.925 466.371 683.67 467.821 683.499C469.271 683.286 470.721 683.115 472.171 682.987V634.118C469.484 633.99 467.224 633.841 465.391 633.67C463.6 633.457 462.597 633.308 462.384 633.223C461.531 633.137 460.828 632.775 460.273 632.135C459.762 631.496 459.506 630.749 459.506 629.896C459.506 628.873 459.868 628.063 460.593 627.466C461.318 626.826 462.086 626.506 462.896 626.506C463.067 626.506 463.194 626.549 463.28 626.634C463.322 626.634 463.813 626.677 464.751 626.762C465.689 626.847 466.904 626.954 468.397 627.082C469.932 627.21 471.659 627.317 473.578 627.402C475.497 627.487 477.48 627.53 479.527 627.53C481.574 627.53 483.578 627.487 485.54 627.402C487.501 627.274 489.292 627.018 490.913 626.634C490.998 626.634 491.083 626.613 491.168 626.57C491.296 626.528 491.424 626.506 491.552 626.506C492.533 626.506 493.343 626.869 493.983 627.594C494.665 628.276 495.006 629.044 495.006 629.896V636.485C497.48 632.86 500.422 630.131 503.833 628.297C507.288 626.421 511.189 625.483 515.539 625.483C518.098 625.483 520.315 625.931 522.191 626.826C524.11 627.679 525.752 628.852 527.117 630.344C528.524 631.837 529.654 633.564 530.507 635.525C531.402 637.444 532.106 639.47 532.618 641.602C533.172 643.734 533.535 645.909 533.705 648.126C533.918 650.301 534.025 652.348 534.025 654.267C534.025 656.399 533.918 658.745 533.705 661.303C533.492 663.819 533.215 666.335 532.874 668.851C532.575 671.367 532.213 673.755 531.786 676.015C531.402 678.275 531.019 680.194 530.635 681.772C532.255 681.857 533.918 681.943 535.624 682.028C537.372 682.113 539.142 682.262 540.933 682.476C541.914 682.561 542.66 682.987 543.172 683.755C543.726 684.48 544.003 685.269 544.003 686.122ZM580.399 627.85C580.399 627.892 580.421 628.553 580.463 629.833C580.506 631.069 580.549 632.796 580.591 635.014C580.677 637.188 580.741 639.79 580.783 642.817C580.868 645.845 580.911 649.15 580.911 652.732C580.911 657.38 580.847 662.348 580.719 667.636C580.591 672.924 580.357 678.297 580.016 683.755C579.674 688.787 578.864 693.563 577.585 698.083C576.306 702.603 574.451 706.569 572.02 709.98C569.632 713.392 566.626 716.1 563.001 718.104C559.419 720.108 555.133 721.11 550.144 721.11C546.903 721.11 543.854 720.577 540.997 719.511C538.14 718.488 535.667 717.017 533.577 715.098C531.445 713.179 529.782 710.876 528.588 708.189C527.351 705.546 526.733 702.603 526.733 699.362C526.733 698.424 527.053 697.614 527.692 696.932C528.332 696.292 529.142 695.972 530.123 695.972C531.019 695.972 531.786 696.292 532.426 696.932C533.065 697.614 533.385 698.424 533.385 699.362C533.428 700.599 533.705 702.006 534.217 703.584C534.729 705.204 535.475 706.718 536.456 708.125C537.394 709.575 538.545 710.791 539.91 711.771C541.274 712.752 542.809 713.243 544.515 713.243C546.775 713.243 548.673 712.667 550.208 711.516C551.743 710.364 553.001 708.872 553.982 707.038C554.963 705.204 555.688 703.136 556.157 700.833C556.668 698.531 557.031 696.228 557.244 693.925C557.457 691.623 557.564 689.448 557.564 687.401C557.607 685.311 557.628 683.584 557.628 682.22V632.135C554.941 632.007 552.681 631.858 550.848 631.688C549.014 631.474 548.033 631.368 547.905 631.368C547.052 631.24 546.327 630.856 545.73 630.216C545.176 629.577 544.899 628.83 544.899 627.978C544.899 627.039 545.24 626.25 545.922 625.611C546.647 624.971 547.436 624.651 548.289 624.651H548.737C548.779 624.651 549.27 624.715 550.208 624.843C551.146 624.929 552.361 625.056 553.854 625.227C555.389 625.355 557.116 625.483 559.035 625.611C560.954 625.696 562.937 625.739 564.984 625.739C567.031 625.739 569.035 625.675 570.997 625.547C572.958 625.376 574.749 625.078 576.37 624.651H577.137C578.075 624.651 578.843 624.993 579.44 625.675C580.08 626.314 580.399 627.039 580.399 627.85ZM579.632 605.142C579.632 606.72 579.333 608.212 578.736 609.62C578.139 610.984 577.329 612.178 576.306 613.202C575.282 614.225 574.067 615.035 572.66 615.632C571.295 616.229 569.824 616.528 568.246 616.528C566.626 616.528 565.112 616.229 563.705 615.632C562.297 615.035 561.082 614.225 560.059 613.202C559.035 612.178 558.225 610.984 557.628 609.62C557.031 608.212 556.732 606.72 556.732 605.142C556.732 603.564 557.031 602.093 557.628 600.729C558.225 599.321 559.035 598.106 560.059 597.083C561.082 596.059 562.297 595.249 563.705 594.652C565.112 594.055 566.626 593.756 568.246 593.756C569.824 593.756 571.295 594.055 572.66 594.652C574.067 595.249 575.282 596.059 576.306 597.083C577.329 598.106 578.139 599.321 578.736 600.729C579.333 602.093 579.632 603.564 579.632 605.142ZM638.543 666.612C638.458 665.887 638.394 665.141 638.352 664.374C638.309 663.606 638.288 662.817 638.288 662.007H635.921C634.215 662.007 632.19 662.135 629.844 662.391C627.542 662.646 625.153 663.052 622.68 663.606C620.207 664.16 617.755 664.907 615.324 665.845C612.894 666.74 610.719 667.849 608.8 669.171C606.881 670.45 605.324 671.964 604.13 673.712C602.979 675.461 602.403 677.465 602.403 679.725C602.403 680.919 602.681 681.943 603.235 682.795C603.832 683.648 604.557 684.352 605.41 684.906C606.305 685.418 607.286 685.802 608.352 686.058C609.418 686.271 610.442 686.377 611.422 686.377C614.45 686.377 617.307 685.802 619.994 684.65C622.723 683.456 625.239 681.921 627.542 680.045C629.844 678.126 631.912 675.994 633.746 673.648C635.58 671.303 637.179 668.958 638.543 666.612ZM669.183 688.744H668.927C668.202 688.659 667.456 688.616 666.688 688.616C665.92 688.616 665.174 688.616 664.449 688.616C660.441 688.616 656.582 688.872 652.872 689.384C649.204 689.896 645.516 690.684 641.806 691.75C641.678 691.75 641.55 691.772 641.422 691.814C641.294 691.857 641.123 691.878 640.91 691.878C639.929 691.878 639.119 691.495 638.479 690.727C637.882 690.002 637.584 689.256 637.584 688.488V687.977C637.584 687.891 637.691 687.038 637.904 685.418C638.117 683.755 638.33 681.452 638.543 678.51C636.71 680.557 634.748 682.476 632.659 684.267C630.612 686.015 628.437 687.55 626.134 688.872C623.874 690.151 621.529 691.153 619.098 691.878C616.667 692.646 614.152 693.03 611.55 693.03C609.503 693.03 607.521 692.71 605.602 692.07C603.683 691.473 601.977 690.599 600.484 689.448C599.035 688.296 597.862 686.91 596.966 685.29C596.113 683.627 595.687 681.772 595.687 679.725C595.687 676.527 596.369 673.712 597.734 671.282C599.141 668.851 600.975 666.74 603.235 664.949C605.495 663.116 608.054 661.602 610.911 660.408C613.81 659.171 616.753 658.19 619.738 657.465C622.723 656.698 625.623 656.165 628.437 655.866C631.251 655.525 633.746 655.354 635.921 655.354H637.456C637.456 652.753 636.987 650.216 636.049 647.743C635.153 645.269 633.874 643.073 632.211 641.154C630.59 639.235 628.65 637.7 626.39 636.549C624.13 635.355 621.635 634.758 618.906 634.758C616.902 634.758 614.94 635.333 613.021 636.485C611.103 637.594 609.397 639.022 607.904 640.771C606.412 642.519 605.196 644.48 604.258 646.655C603.363 648.83 602.915 650.941 602.915 652.988C602.915 653.841 602.553 654.566 601.828 655.163C601.145 655.717 600.378 655.994 599.525 655.994C598.587 655.994 597.777 655.653 597.094 654.971C596.412 654.246 596.071 653.457 596.071 652.604C596.071 650.557 596.433 648.425 597.158 646.208C597.883 643.947 598.928 641.751 600.292 639.619C601.7 637.444 603.384 635.397 605.346 633.479C607.35 631.56 609.61 629.875 612.126 628.425C614.685 626.933 617.478 625.76 620.505 624.907C623.533 624.054 626.753 623.628 630.164 623.628C634.94 623.628 639.013 624.374 642.381 625.867C645.793 627.359 648.629 629.385 650.889 631.943C653.191 634.502 655.004 637.466 656.326 640.834C657.648 644.203 658.65 647.764 659.332 651.517C660.014 655.269 660.441 659.086 660.611 662.966C660.825 666.847 660.931 670.557 660.931 674.096C660.931 675.887 660.91 677.422 660.867 678.702C660.825 679.981 660.803 681.047 660.803 681.9C661.443 681.9 662.083 681.879 662.722 681.836C663.404 681.793 664.065 681.772 664.705 681.772C665.43 681.772 666.176 681.793 666.944 681.836C667.754 681.879 668.543 681.9 669.311 681.9C670.249 681.985 670.995 682.348 671.549 682.987C672.146 683.627 672.445 684.416 672.445 685.354C672.445 686.25 672.125 687.038 671.485 687.721C670.888 688.403 670.121 688.744 669.183 688.744ZM695.92 682.028C695.92 683.392 695.664 684.672 695.152 685.866C694.641 687.06 693.937 688.104 693.042 689C692.189 689.896 691.165 690.599 689.971 691.111C688.777 691.623 687.498 691.878 686.133 691.878C684.769 691.878 683.489 691.623 682.295 691.111C681.101 690.599 680.057 689.896 679.161 689C678.266 688.104 677.562 687.06 677.05 685.866C676.539 684.672 676.283 683.392 676.283 682.028C676.283 680.706 676.539 679.448 677.05 678.254C677.562 677.06 678.266 676.036 679.161 675.184C680.057 674.331 681.101 673.648 682.295 673.137C683.489 672.625 684.769 672.369 686.133 672.369C687.498 672.369 688.777 672.625 689.971 673.137C691.165 673.648 692.189 674.331 693.042 675.184C693.937 676.036 694.641 677.06 695.152 678.254C695.664 679.448 695.92 680.706 695.92 682.028ZM750.738 666.612C750.653 665.887 750.589 665.141 750.546 664.374C750.503 663.606 750.482 662.817 750.482 662.007H748.115C746.41 662.007 744.384 662.135 742.039 662.391C739.736 662.646 737.348 663.052 734.875 663.606C732.401 664.16 729.949 664.907 727.519 665.845C725.088 666.74 722.913 667.849 720.994 669.171C719.075 670.45 717.519 671.964 716.325 673.712C715.173 675.461 714.598 677.465 714.598 679.725C714.598 680.919 714.875 681.943 715.429 682.795C716.026 683.648 716.751 684.352 717.604 684.906C718.5 685.418 719.48 685.802 720.546 686.058C721.612 686.271 722.636 686.377 723.617 686.377C726.644 686.377 729.501 685.802 732.188 684.65C734.917 683.456 737.433 681.921 739.736 680.045C742.039 678.126 744.107 675.994 745.94 673.648C747.774 671.303 749.373 668.958 750.738 666.612ZM781.377 688.744H781.121C780.396 688.659 779.65 688.616 778.882 688.616C778.115 688.616 777.368 688.616 776.644 688.616C772.635 688.616 768.776 688.872 765.066 689.384C761.399 689.896 757.71 690.684 754 691.75C753.872 691.75 753.744 691.772 753.616 691.814C753.488 691.857 753.318 691.878 753.104 691.878C752.124 691.878 751.313 691.495 750.674 690.727C750.077 690.002 749.778 689.256 749.778 688.488V687.977C749.778 687.891 749.885 687.038 750.098 685.418C750.311 683.755 750.525 681.452 750.738 678.51C748.904 680.557 746.943 682.476 744.853 684.267C742.806 686.015 740.631 687.55 738.329 688.872C736.069 690.151 733.723 691.153 731.292 691.878C728.862 692.646 726.346 693.03 723.745 693.03C721.698 693.03 719.715 692.71 717.796 692.07C715.877 691.473 714.171 690.599 712.679 689.448C711.229 688.296 710.056 686.91 709.161 685.29C708.308 683.627 707.881 681.772 707.881 679.725C707.881 676.527 708.564 673.712 709.928 671.282C711.335 668.851 713.169 666.74 715.429 664.949C717.689 663.116 720.248 661.602 723.105 660.408C726.005 659.171 728.947 658.19 731.932 657.465C734.917 656.698 737.817 656.165 740.631 655.866C743.446 655.525 745.94 655.354 748.115 655.354H749.65C749.65 652.753 749.181 650.216 748.243 647.743C747.348 645.269 746.068 643.073 744.405 641.154C742.785 639.235 740.845 637.7 738.584 636.549C736.324 635.355 733.83 634.758 731.101 634.758C729.096 634.758 727.135 635.333 725.216 636.485C723.297 637.594 721.591 639.022 720.099 640.771C718.606 642.519 717.391 644.48 716.453 646.655C715.557 648.83 715.109 650.941 715.109 652.988C715.109 653.841 714.747 654.566 714.022 655.163C713.34 655.717 712.572 655.994 711.719 655.994C710.781 655.994 709.971 655.653 709.289 654.971C708.606 654.246 708.265 653.457 708.265 652.604C708.265 650.557 708.628 648.425 709.353 646.208C710.077 643.947 711.122 641.751 712.487 639.619C713.894 637.444 715.578 635.397 717.54 633.479C719.544 631.56 721.804 629.875 724.32 628.425C726.879 626.933 729.672 625.76 732.7 624.907C735.727 624.054 738.947 623.628 742.358 623.628C747.134 623.628 751.207 624.374 754.576 625.867C757.987 627.359 760.823 629.385 763.083 631.943C765.386 634.502 767.198 637.466 768.52 640.834C769.842 644.203 770.844 647.764 771.526 651.517C772.209 655.269 772.635 659.086 772.806 662.966C773.019 666.847 773.125 670.557 773.125 674.096C773.125 675.887 773.104 677.422 773.062 678.702C773.019 679.981 772.998 681.047 772.998 681.9C773.637 681.9 774.277 681.879 774.917 681.836C775.599 681.793 776.26 681.772 776.899 681.772C777.624 681.772 778.371 681.793 779.138 681.836C779.948 681.879 780.737 681.9 781.505 681.9C782.443 681.985 783.189 682.348 783.744 682.987C784.341 683.627 784.639 684.416 784.639 685.354C784.639 686.25 784.319 687.038 783.68 687.721C783.083 688.403 782.315 688.744 781.377 688.744ZM858.838 654.651C858.796 651.708 858.348 648.809 857.495 645.952C856.642 643.052 855.384 640.472 853.721 638.212C852.101 635.952 850.097 634.118 847.708 632.711C845.363 631.304 842.655 630.6 839.585 630.6C837.325 630.6 835.193 631.09 833.188 632.071C831.227 633.052 829.415 634.353 827.751 635.973C826.131 637.594 824.681 639.449 823.402 641.538C822.123 643.628 821.035 645.802 820.14 648.062C819.287 650.323 818.626 652.583 818.157 654.843C817.688 657.103 817.453 659.192 817.453 661.111V674.096C817.965 676.1 818.86 677.827 820.14 679.277C821.419 680.685 822.911 681.879 824.617 682.859C826.323 683.798 828.157 684.501 830.118 684.97C832.08 685.397 833.977 685.61 835.811 685.61C838.625 685.61 841.141 685.141 843.359 684.203C845.619 683.264 847.602 682.007 849.308 680.429C851.013 678.851 852.463 677.039 853.657 674.992C854.851 672.902 855.832 670.706 856.6 668.403C857.367 666.101 857.922 663.777 858.263 661.431C858.646 659.043 858.838 656.783 858.838 654.651ZM865.683 654.651C865.683 657.721 865.384 660.792 864.787 663.862C864.233 666.889 863.38 669.811 862.229 672.625C861.12 675.397 859.734 677.998 858.071 680.429C856.408 682.817 854.467 684.906 852.25 686.697C850.033 688.446 847.538 689.832 844.766 690.855C842.037 691.878 839.052 692.39 835.811 692.39C832.357 692.39 829.031 691.836 825.833 690.727C822.677 689.661 819.884 688.083 817.453 685.994V716.121C818.434 716.206 819.436 716.292 820.459 716.377C821.483 716.505 822.485 716.633 823.466 716.761C824.319 716.889 825.001 717.272 825.513 717.912C826.067 718.552 826.344 719.255 826.344 720.023C826.344 721.132 825.96 721.985 825.193 722.582C824.425 723.179 823.679 723.477 822.954 723.477H822.57C820.054 723.136 817.474 722.837 814.831 722.582C812.187 722.368 809.394 722.262 806.451 722.262C803.765 722.262 800.95 722.368 798.008 722.582C795.108 722.837 791.974 723.306 788.605 723.989H788.093C787.112 723.989 786.302 723.648 785.663 722.965C785.023 722.326 784.703 721.579 784.703 720.727C784.703 719.916 784.938 719.191 785.407 718.552C785.918 717.955 786.601 717.571 787.454 717.4C790.012 716.889 792.422 716.505 794.682 716.249V632.007C792.379 631.879 790.481 631.73 788.989 631.56C787.496 631.346 786.686 631.24 786.558 631.24C785.705 631.112 785.002 630.728 784.447 630.088C783.893 629.449 783.616 628.745 783.616 627.978C783.616 626.869 784 626.016 784.767 625.419C785.577 624.822 786.345 624.523 787.07 624.523H787.454C787.496 624.523 787.944 624.587 788.797 624.715C789.65 624.801 790.758 624.929 792.123 625.099C793.53 625.227 795.129 625.355 796.92 625.483C798.711 625.568 800.566 625.611 802.485 625.611C804.362 625.611 806.238 625.547 808.114 625.419C809.991 625.248 811.739 624.993 813.359 624.651C813.53 624.566 813.764 624.523 814.063 624.523C815.044 624.523 815.854 624.886 816.494 625.611C817.133 626.336 817.453 627.125 817.453 627.978V638.404C820.012 633.926 823.167 630.387 826.92 627.786C830.715 625.184 834.937 623.884 839.585 623.884C843.764 623.884 847.453 624.801 850.651 626.634C853.849 628.468 856.536 630.856 858.71 633.798C860.928 636.741 862.612 640.046 863.764 643.713C864.915 647.38 865.555 651.026 865.683 654.651ZM947.366 654.651C947.323 651.708 946.875 648.809 946.022 645.952C945.17 643.052 943.912 640.472 942.249 638.212C940.628 635.952 938.624 634.118 936.236 632.711C933.89 631.304 931.183 630.6 928.112 630.6C925.852 630.6 923.72 631.09 921.716 632.071C919.754 633.052 917.942 634.353 916.279 635.973C914.658 637.594 913.208 639.449 911.929 641.538C910.65 643.628 909.562 645.802 908.667 648.062C907.814 650.323 907.153 652.583 906.684 654.843C906.215 657.103 905.98 659.192 905.98 661.111V674.096C906.492 676.1 907.388 677.827 908.667 679.277C909.946 680.685 911.439 681.879 913.145 682.859C914.85 683.798 916.684 684.501 918.646 684.97C920.607 685.397 922.505 685.61 924.338 685.61C927.153 685.61 929.669 685.141 931.886 684.203C934.146 683.264 936.129 682.007 937.835 680.429C939.541 678.851 940.991 677.039 942.185 674.992C943.379 672.902 944.359 670.706 945.127 668.403C945.895 666.101 946.449 663.777 946.79 661.431C947.174 659.043 947.366 656.783 947.366 654.651ZM954.21 654.651C954.21 657.721 953.911 660.792 953.314 663.862C952.76 666.889 951.907 669.811 950.756 672.625C949.647 675.397 948.261 677.998 946.598 680.429C944.935 682.817 942.995 684.906 940.777 686.697C938.56 688.446 936.065 689.832 933.293 690.855C930.564 691.878 927.579 692.39 924.338 692.39C920.884 692.39 917.558 691.836 914.36 690.727C911.204 689.661 908.411 688.083 905.98 685.994V716.121C906.961 716.206 907.963 716.292 908.987 716.377C910.01 716.505 911.012 716.633 911.993 716.761C912.846 716.889 913.528 717.272 914.04 717.912C914.594 718.552 914.872 719.255 914.872 720.023C914.872 721.132 914.488 721.985 913.72 722.582C912.953 723.179 912.206 723.477 911.481 723.477H911.098C908.582 723.136 906.002 722.837 903.358 722.582C900.714 722.368 897.921 722.262 894.979 722.262C892.292 722.262 889.478 722.368 886.535 722.582C883.635 722.837 880.501 723.306 877.132 723.989H876.621C875.64 723.989 874.83 723.648 874.19 722.965C873.55 722.326 873.23 721.579 873.23 720.727C873.23 719.916 873.465 719.191 873.934 718.552C874.446 717.955 875.128 717.571 875.981 717.4C878.54 716.889 880.949 716.505 883.209 716.249V632.007C880.906 631.879 879.009 631.73 877.516 631.56C876.024 631.346 875.213 631.24 875.085 631.24C874.233 631.112 873.529 630.728 872.975 630.088C872.42 629.449 872.143 628.745 872.143 627.978C872.143 626.869 872.527 626.016 873.294 625.419C874.105 624.822 874.872 624.523 875.597 624.523H875.981C876.024 624.523 876.471 624.587 877.324 624.715C878.177 624.801 879.286 624.929 880.65 625.099C882.058 625.227 883.657 625.355 885.448 625.483C887.239 625.568 889.094 625.611 891.013 625.611C892.889 625.611 894.765 625.547 896.642 625.419C898.518 625.248 900.266 624.993 901.887 624.651C902.057 624.566 902.292 624.523 902.59 624.523C903.571 624.523 904.381 624.886 905.021 625.611C905.661 626.336 905.98 627.125 905.98 627.978V638.404C908.539 633.926 911.695 630.387 915.447 627.786C919.243 625.184 923.464 623.884 928.112 623.884C932.291 623.884 935.98 624.801 939.178 626.634C942.376 628.468 945.063 630.856 947.238 633.798C949.455 636.741 951.14 640.046 952.291 643.713C953.442 647.38 954.082 651.026 954.21 654.651Z" fill="black"/>
<path d="M618.938 278.505C627.237 278.651 634.422 282.312 638.613 285.729C649.969 280.223 658.805 280.212 665.26 282.522C671.56 284.776 675.532 289.219 677.333 292.776C689.041 291.261 696.948 293.848 702.072 297.784C707.09 301.639 709.391 306.752 709.99 310.435C727.469 315.99 731.671 327.669 731.557 333.402C774.208 341.126 789.001 366.371 791.035 378.233L791.061 378.387L790.995 378.53C786.286 388.561 775.192 393.312 763.422 395.223C752.056 397.069 739.91 396.294 731.848 394.961C741.43 418.176 746.311 435.856 748.509 448.557C749.621 454.983 750.048 460.139 750.048 464.095C750.048 467.975 749.636 470.733 749.04 472.407C748.42 513.466 733.913 532.726 715.84 539.969C698.097 547.08 677.112 542.518 662.971 536.062C662.255 542.828 659.686 551.394 656.749 559.402C653.705 567.699 650.248 575.44 647.991 580.038L647.976 580.068L647.958 580.096C643.017 587.456 637.696 591.939 632.31 594.305C626.921 596.672 621.503 596.902 616.401 595.819C606.374 593.69 597.55 586.488 592.392 580.414C579.022 585.701 568.995 583.652 561.899 578.844C554.908 574.107 550.823 566.735 549.155 561.266C536.263 559.422 528.842 554.788 524.835 549.65C521.013 544.748 520.339 539.439 520.941 535.803C506.161 535.48 496.499 530.533 490.436 524.394C484.304 518.186 481.885 510.796 481.543 505.852L481.538 505.772L481.557 505.695C491.01 468.279 520.856 430.43 535.375 415.306C520.428 415.079 505.636 410.543 494.656 405.776C489.021 403.329 484.375 400.817 481.216 398.785C479.64 397.77 478.419 396.866 477.627 396.141C477.235 395.782 476.925 395.446 476.734 395.146C476.639 394.997 476.555 394.829 476.519 394.653C476.487 394.497 476.49 394.311 476.574 394.134C482.423 372.013 496.637 357.267 512.005 347.829C527.19 338.503 543.525 334.346 554.108 333.356C558.294 307.08 581.142 295.462 592.257 292.87C600.918 281.865 610.476 278.357 618.938 278.505ZM669.692 308.796C660.129 301.072 653.106 299.359 648.164 300.543C643.463 301.67 640.815 305.374 639.736 308.614C626.124 302.028 616.184 301.937 609.261 304.626C602.426 307.282 598.623 312.614 597.168 316.856C587.285 317.98 580.273 320.5 575.465 323.89C570.595 327.325 568.008 331.638 566.992 336.234C565.085 344.855 568.717 354.384 572.864 360.931C557.035 356.241 542.436 358.852 530.566 364.084C518.372 369.46 509.036 377.611 504.158 383.498L503.878 383.834L504.175 384.157C505.475 385.564 507.378 386.382 509.542 386.806C511.709 387.231 514.186 387.27 516.693 387.079C521.706 386.695 526.923 385.384 530.201 384.291L530.236 384.28L530.269 384.263C555.937 371.232 569.773 378.764 573.542 383.979C573.595 460.293 610.54 486.006 629.365 489.292C643.193 497.226 651.275 511.08 653.577 516.998L653.632 517.142L653.759 517.229C669.208 527.863 680.617 530.805 688.637 530.078C696.673 529.349 701.258 524.938 703 521.02L703.293 520.359L702.571 520.318C684.778 519.318 675.696 516.612 671.541 513.719C669.479 512.284 668.688 510.844 668.573 509.591C668.465 508.421 668.937 507.305 669.72 506.372C686.986 510.502 697.577 509.65 703.801 506.796C710.101 503.908 711.894 498.983 711.541 495.27L711.51 494.956L711.214 494.847L709.714 494.284C702.357 491.446 697.161 488.327 693.639 485.549C690.049 482.718 688.227 480.263 687.596 478.842C689.135 475.944 690.985 474.221 692.952 473.313C694.966 472.383 697.154 472.283 699.344 472.72C703.746 473.598 708.063 476.627 710.695 479.176L711.105 479.574L711.445 479.115C713.095 476.882 714.902 475.557 716.729 474.865C718.558 474.172 720.44 474.1 722.255 474.422C725.903 475.071 729.242 477.305 731.197 479.178L732.083 480.027L732.042 478.801C731.24 454.328 724.022 431.833 720.502 423.621L720.492 423.595L720.478 423.572C710.692 406.196 705.755 393.613 703.552 384.956C702.451 380.628 702.037 377.292 702.037 374.837C702.037 372.387 702.449 370.876 702.944 370.117C714.181 357.063 715.561 347.24 712.462 340.24C709.44 333.41 702.242 329.49 696.473 327.915C694.789 319.147 689.987 314.106 684.63 311.396C679.335 308.717 673.525 308.327 669.692 308.796Z" fill="black"/>
<path d="M629.61 404.036C610.01 407.636 608.776 396.536 610.61 390.536C610.61 384.333 619.276 382.951 623.61 383.036C631.61 382.236 641.943 395.036 646.11 401.536C651.31 410.336 645.943 409.536 642.61 408.036C637.81 401.636 631.943 402.702 629.61 404.036Z" fill="black" stroke="black"/>
</svg>
